<svg width="12" height="13" viewBox="0 0 12 13" fill="none" xmlns="http://www.w3.org/2000/svg">
<path d="M5.56157 6.77087L10.65 12.1421C10.7485 12.2312 10.8752 12.2778 11.0049 12.2725C11.1345 12.2673 11.2574 12.2105 11.3492 12.1136C11.4409 12.0166 11.4946 11.8867 11.4996 11.7498C11.5046 11.6128 11.4605 11.4789 11.3762 11.3748L6.71007 6.44435L11.2423 1.65542C11.3382 1.55346 11.392 1.41553 11.392 1.27176C11.392 1.12799 11.3382 0.990064 11.2423 0.888103C11.1944 0.837095 11.1374 0.796611 11.0747 0.768982C11.0119 0.741354 10.9446 0.72713 10.8766 0.72713C10.8086 0.72713 10.7413 0.741354 10.6785 0.768982C10.6158 0.796611 10.5588 0.837095 10.5109 0.888103L5.56157 6.11783C5.4798 6.20454 5.43389 6.32195 5.43389 6.44435C5.43389 6.56676 5.4798 6.68417 5.56157 6.77087Z" fill="#DC6532"/>
<path d="M0.627981 6.77087L5.71639 12.1421C5.81491 12.2312 5.94164 12.2778 6.07126 12.2725C6.20088 12.2673 6.32384 12.2105 6.41556 12.1136C6.50728 12.0166 6.56102 11.8867 6.56602 11.7498C6.57103 11.6128 6.52694 11.4789 6.44257 11.3748L1.77648 6.44435L6.30866 1.65542C6.40458 1.55346 6.45842 1.41553 6.45842 1.27176C6.45842 1.12799 6.40458 0.990063 6.30866 0.888101C6.21216 0.786744 6.08163 0.729853 5.94557 0.729853C5.80951 0.729853 5.67898 0.786744 5.58248 0.888101L0.627981 6.11783C0.546211 6.20454 0.500296 6.32195 0.500296 6.44435C0.500296 6.56675 0.546211 6.68417 0.627981 6.77087Z" fill="#DC6532"/>
</svg>
