<svg width="12" height="13" viewBox="0 0 12 13" fill="none" xmlns="http://www.w3.org/2000/svg">
<path d="M6.43843 6.22913L1.35002 0.857907C1.2515 0.768753 1.12476 0.722166 0.995143 0.727457C0.865524 0.732747 0.742569 0.789524 0.650846 0.886443C0.559124 0.983361 0.505391 1.11328 0.500384 1.25024C0.495377 1.38721 0.539466 1.52112 0.62384 1.62522L5.28993 6.55565L0.757746 11.3446C0.661823 11.4465 0.607982 11.5845 0.607982 11.7282C0.607982 11.872 0.661823 12.0099 0.757746 12.1119C0.805624 12.1629 0.862586 12.2034 0.925346 12.231C0.988106 12.2586 1.05542 12.2729 1.12341 12.2729C1.1914 12.2729 1.25872 12.2586 1.32148 12.231C1.38424 12.2034 1.4412 12.1629 1.48908 12.1119L6.43843 6.88217C6.5202 6.79546 6.56611 6.67805 6.56611 6.55565C6.56611 6.43324 6.5202 6.31583 6.43843 6.22913Z" fill="#19929B"/>
<path d="M11.372 6.22913L6.28361 0.857907C6.18509 0.768753 6.05836 0.722166 5.92874 0.727457C5.79912 0.732747 5.67616 0.789524 5.58444 0.886443C5.49272 0.983361 5.43898 1.11328 5.43398 1.25024C5.42897 1.38721 5.47306 1.52112 5.55743 1.62522L10.2235 6.55565L5.69134 11.3446C5.59542 11.4465 5.54158 11.5845 5.54158 11.7282C5.54158 11.872 5.59542 12.0099 5.69134 12.1119C5.78784 12.2133 5.91837 12.2701 6.05443 12.2701C6.19049 12.2701 6.32102 12.2133 6.41752 12.1119L11.372 6.88217C11.4538 6.79546 11.4997 6.67805 11.4997 6.55565C11.4997 6.43325 11.4538 6.31583 11.372 6.22913Z" fill="#19929B"/>
</svg>
