<svg width="24" height="24" viewBox="0 0 24 24" fill="none" xmlns="http://www.w3.org/2000/svg">
<path d="M21 20.2796L16.0801 15.3597C17.0155 14.0749 17.5738 12.4981 17.5738 10.7869C17.5738 6.48609 14.0877 3 9.78688 3C5.48609 3 2 6.48609 2 10.7869C2 15.0877 5.48609 18.5738 9.78688 18.5738C11.4981 18.5738 13.0749 18.0155 14.3597 17.0801L19.2796 22L21 20.2796ZM9.78688 16.1404C6.83517 16.1404 4.4334 13.7386 4.4334 10.7869C4.4334 7.83517 6.83517 5.4334 9.78688 5.4334C12.7386 5.4334 15.1404 7.83517 15.1404 10.7869C15.1404 13.7386 12.7386 16.1404 9.78688 16.1404Z" fill="#828282"/>
</svg>
