<svg width="24" height="24" viewBox="0 0 24 24" fill="none" xmlns="http://www.w3.org/2000/svg">
<path d="M17.6028 12.6276C17.5776 10.0942 19.6687 8.87909 19.7622 8.8177C18.587 7.09935 16.756 6.86357 16.1044 6.83674C14.5474 6.6786 13.0648 7.75384 12.275 7.75384C11.4867 7.75384 10.2664 6.85991 8.97526 6.88268C7.27683 6.90788 5.71132 7.87052 4.83731 9.39089C3.07343 12.4508 4.38607 16.9855 6.10483 19.4689C6.94511 20.6828 7.94717 22.0487 9.26185 21.9986C10.529 21.9486 11.007 21.1791 12.5388 21.1791C14.0706 21.1791 14.5007 21.9987 15.8409 21.973C17.2036 21.9482 18.0674 20.736 18.9008 19.5173C19.8655 18.1071 20.2626 16.7416 20.2862 16.6724C20.2565 16.6586 17.63 15.6525 17.6028 12.6276Z" fill="white"/>
<path d="M15.0844 5.1932C15.7816 4.34683 16.254 3.17077 16.1255 2C15.1194 2.04065 13.9015 2.66872 13.1791 3.51428C12.5319 4.26471 11.966 5.45947 12.1177 6.6091C13.2401 6.6961 14.3848 6.03795 15.0844 5.1932Z" fill="white"/>
</svg>
