<svg width="25" height="28" viewBox="0 0 25 28" fill="none" xmlns="http://www.w3.org/2000/svg">
<path d="M4.54099 4.01904L12.2201 15.9052L13.06 15.3626L18.4408 11.8863C17.2913 11.2034 16.0109 10.7346 14.7659 10.6318L10.0403 3.31722C10.2033 2.43435 10.1633 1.42347 10.0268 0.474954L5.38095 3.47639L4.54099 4.01904Z" fill="#D4584B"/>
<path d="M12.22 15.905L13.4014 17.7337L15.7642 21.391L16.9456 23.2196L18.967 24.5056L17.7856 22.6769L14.2414 17.191L13.06 15.3624L12.22 15.905Z" fill="#BDC3C7"/>
<path d="M13.0602 15.3625L14.2416 17.1912L16.6044 20.8485L17.7857 22.6771L18.9671 24.5058L18.6257 22.1345L17.4443 20.3058L15.0815 16.6485L13.9001 14.8199L13.0602 15.3625Z" fill="#7F8C8D"/>
<path d="M0.734965 6.47781C1.54401 6.99188 2.44862 7.44415 3.32062 7.65836L8.04619 14.9729C7.62837 16.15 7.52899 17.5102 7.67906 18.8388L13.06 15.3624L5.38095 3.47627L0.734965 6.47781Z" fill="#FF603E"/>
</svg>
