<svg width="100" height="100" viewBox="0 0 100 100" fill="none" xmlns="http://www.w3.org/2000/svg">
<path d="M50 100C77.6142 100 100 77.6142 100 50C100 22.3858 77.6142 0 50 0C22.3858 0 0 22.3858 0 50C0 77.6142 22.3858 100 50 100Z" fill="url(#paint0_linear_186_324)"/>
<path d="M82.6803 48.3403C82.0903 49.3703 82.0903 50.6203 82.6803 51.6503C85.6603 56.8003 85.8803 63.3603 82.7103 68.8903C79.5303 74.4103 73.7303 77.5003 67.7803 77.4903C66.5803 77.4903 65.5003 78.1203 64.9103 79.1503C61.9403 84.3003 56.3803 87.7803 50.0103 87.7803C43.6403 87.7803 38.0803 84.3103 35.1103 79.1503C34.5203 78.1203 33.4403 77.4903 32.2403 77.4903C26.2803 77.4903 20.5103 74.4203 17.3103 68.8903C14.1303 63.3703 14.3403 56.8203 17.3203 51.6703C17.9203 50.6403 17.9203 49.3803 17.3203 48.3503C14.3403 43.2003 14.1203 36.6403 17.3103 31.1303C20.4903 25.6003 26.2903 22.5203 32.2403 22.5303C33.4403 22.5303 34.5203 21.9003 35.1103 20.8703C38.0603 15.7103 43.6303 12.2303 50.0003 12.2303C56.3703 12.2303 61.9303 15.7003 64.9003 20.8603C65.4903 21.8903 66.5703 22.5203 67.7703 22.5203C73.7303 22.5203 79.5103 25.5903 82.7003 31.1203C85.8803 36.6503 85.6603 43.2103 82.6703 48.3603H82.6903L82.6803 48.3403Z" fill="#FFA488"/>
<path d="M33.408 57.704L33.576 58.184H33.168L33.216 58.304C33.216 58.32 33.216 58.344 33.216 58.376C33.232 58.392 33.24 58.408 33.24 58.424H33.096V58.472C33.096 58.664 33.024 58.808 32.88 58.904H32.904C32.824 58.968 32.72 59 32.592 59H28.152C28.04 59 27.944 58.992 27.864 58.976C27.8 58.944 27.728 58.92 27.648 58.904C27.52 58.84 27.424 58.768 27.36 58.688C27.296 58.592 27.248 58.504 27.216 58.424H27.336V58.4L27.288 58.304L27.24 58.184H27.648L27.48 57.704H27.024L26.952 57.464H27.936L27.768 56.984H27.48L27.408 56.816H22.248L22.2 56.984H21.912L21.744 57.464H21.48L21.384 57.704H21.24L21.072 58.184H21.096L21.048 58.304L21.024 58.4L21 58.424H20.88C20.848 58.504 20.8 58.592 20.736 58.688C20.672 58.768 20.576 58.84 20.448 58.904H21.168C21.104 58.92 21.032 58.944 20.952 58.976C20.872 58.992 20.776 59 20.664 59H16.224C16.096 59 16 58.968 15.936 58.904H15.216C15.056 58.792 14.976 58.648 14.976 58.472V58.424H15.12C15.12 58.376 15.128 58.336 15.144 58.304L15.168 58.184H15.144L15.312 57.704H15.456L15.552 57.464H15.816L15.984 56.984H16.248L16.416 56.504H15.48L15.576 56.264H15.504L15.624 55.904H15.864L15.912 55.784H15.384L15.552 55.304H16.368L16.44 55.064H15.696L15.744 54.944H15.864L16.032 54.464H15.96L16.08 54.104H16.176L16.344 53.624H16.656L16.776 53.264L16.824 53.144H18.024L18.072 53.024H18L18.12 52.664H16.776L16.944 52.184H17.376L17.424 52.064H17.16L17.208 51.944H17.976L18.144 51.464H17.208L17.304 51.224H17.664L17.832 50.744H17.616L17.736 50.384H18L18.168 49.904H18.096L18.144 49.784H17.592L17.688 49.544H18.216L18.336 49.184H18.096L18.12 49.064H18.552L18.72 48.584H18.192L18.312 48.224H18.048L18.12 47.984H16.464L16.536 47.744H16.224L16.392 47.264H16.08L16.224 46.904H17.16L17.328 46.424H19.728L19.848 46.064H18.696L18.792 45.824H19.68L19.848 45.344H19.056L19.176 44.984H19.68L19.848 44.504H19.776L19.944 44.024H19.272L19.296 43.904H21.6L21.768 43.424H21.696L21.744 43.304H20.904L21 42.992L21.072 42.824H21.312L21.456 42.584H21.384C21.464 42.472 21.576 42.384 21.72 42.32C21.864 42.24 22.04 42.2 22.248 42.2H27.456C27.664 42.2 27.84 42.24 27.984 42.32C28.128 42.384 28.24 42.472 28.32 42.584H28.416L28.56 42.824H28.32C28.352 42.888 28.368 42.944 28.368 42.992L28.488 43.304H29.328L29.352 43.424H29.424L29.592 43.904H27.312L27.36 44.024H28.032L28.2 44.504H28.272L28.44 44.984H27.936L28.056 45.344H28.848L29.016 45.824H28.128L28.224 46.064H29.376L29.496 46.424H27.096L27.264 46.904H26.328L26.448 47.264H26.736L26.904 47.744H25.968L26.064 47.984H29.88L29.952 48.224H29.76L29.88 48.584H29.4L29.568 49.064H28.992L29.016 49.184H29.88L30 49.544H30.024L30.12 49.784H29.328L29.376 49.904H30.144L30.312 50.384H30.576L30.696 50.744H30.624L30.792 51.224H31.176L31.272 51.464H30.576L30.744 51.944H31.224L31.248 52.064H31.128L31.176 52.184H30.744L30.888 52.664H32.256L32.376 53.024H32.448L32.496 53.144H31.272L31.32 53.264H31.344L31.464 53.624H31.152L31.32 54.104H31.2L31.344 54.464H31.416L31.584 54.944H31.464L31.512 55.064H32.256L32.352 55.304H31.512L31.68 55.784H32.208L32.256 55.904H32.016L32.16 56.264H32.208L32.304 56.504H33.24L33.408 56.984H33.696L33.864 57.464H32.88L32.952 57.704H33.408ZM23.376 48.224H23.664L23.544 48.584H24.528L24.408 48.224H24.6L24.528 47.984H23.448L23.376 48.224ZM24.168 49.064L24.048 48.656L23.928 49.064H24.168ZM22.728 51.944L22.68 52.064H22.944L22.92 52.136H25.632L25.608 52.064H25.728L25.704 51.944H25.224L25.08 51.464H25.776L25.704 51.224H25.296L25.152 50.744H25.224L25.128 50.384H24.864L24.72 49.904H23.952L23.904 49.784H24.696L24.624 49.544H24.6L24.48 49.184H23.712L23.616 49.544H23.088L23.016 49.784H23.544L23.52 49.904H23.592L23.448 50.384H23.184L23.064 50.744H23.28L23.136 51.224H22.776L22.704 51.464H23.64L23.496 51.944H22.728ZM43.8945 51.704H48.0465L47.9505 51.944H46.6785L46.6305 52.064H43.9905L43.8465 52.424H44.4465L44.3985 52.544H44.1585L44.0625 52.784H43.8705L43.8225 52.904H44.4705L44.3505 53.144H42.4305L42.2865 53.504H42.4305L42.3825 53.624H40.6785L40.4865 54.104H44.2305L44.0385 54.584H40.0065L39.8145 55.064H40.7745L40.7265 55.184H43.2225L43.1265 55.424H42.8625L42.7185 55.784H40.6785L40.6305 55.904H42.3585L42.2145 56.264H42.7425L42.6465 56.504H42.3585L42.1665 56.984H42.3585L42.1185 57.584H42.0945L42.0465 57.704H41.9985L41.9025 57.944H41.9265L41.8305 58.184H41.9985L41.9265 58.304H41.3265L41.3025 58.4C41.2865 58.4 41.2785 58.408 41.2785 58.424H41.3265L41.1825 58.664H41.5425C41.4785 58.76 41.3985 58.84 41.3025 58.904H41.1105C41.0625 58.92 41.0065 58.944 40.9425 58.976C40.8785 58.992 40.8065 59 40.7265 59H36.8865C36.8065 59 36.7345 58.992 36.6705 58.976C36.6065 58.944 36.5425 58.92 36.4785 58.904H36.6705C36.5745 58.84 36.4865 58.76 36.4065 58.664H36.0705C36.0385 58.632 36.0145 58.592 35.9985 58.544C35.9825 58.496 35.9585 58.456 35.9265 58.424H35.8785V58.4L35.8305 58.304H36.4305L36.3825 58.184H36.2145L36.1185 57.944H36.0945L35.9985 57.704H36.0465L35.9505 57.464H35.9745L35.8785 57.224H35.8545L35.7585 56.984H35.5665L35.3745 56.504H35.6385L35.5425 56.264H35.0145L34.8705 55.904H33.1425L33.0945 55.784H35.1105L34.9665 55.424H35.2545L35.1345 55.184H32.6385L32.5905 55.064H31.6305L31.4145 54.584H35.4705L35.2545 54.104H31.4865L31.2945 53.624H32.9985L32.9505 53.504H32.8065L32.6625 53.144H34.5825L34.4865 52.904H33.8625L33.8145 52.784H33.9825L33.8865 52.544H33.9825L33.9345 52.424H32.6865L32.5425 52.064H33.1665L33.1185 51.944H31.6545L31.5585 51.704H33.6225L33.4785 51.344H33.3105L33.2145 51.104H33.3345L33.2385 50.864H32.1585L32.1105 50.744H33.5985L33.5505 50.624H33.0225L32.9745 50.504H32.9265L32.7345 50.024H33.3105L33.1665 49.664H32.0865L31.9905 49.424H32.6145L32.5185 49.184H32.4705L32.2785 48.704H32.2065L32.1585 48.584H32.0865L32.0385 48.464H32.2065L32.1585 48.344H32.2785L32.1345 47.984H32.0865L32.0385 47.864H31.7745L31.5825 47.384H32.0625L32.0145 47.264C31.9985 47.232 31.9905 47.192 31.9905 47.144H32.0865V47.096C32.0865 46.92 32.1585 46.776 32.3025 46.664H31.6305C31.7265 46.568 31.8465 46.52 31.9905 46.52H36.0465C36.2705 46.52 36.4385 46.568 36.5505 46.664H37.1985C37.2785 46.728 37.3425 46.8 37.3905 46.88C37.4545 46.944 37.4945 47.016 37.5105 47.096L37.5345 47.144H37.4145L37.5105 47.384H37.0305L37.1985 47.864H37.4625L37.4865 47.984H37.5345L37.6545 48.344H37.5345L37.5825 48.464H37.4145L37.4625 48.584H37.5345L37.5585 48.704H37.6305L37.7985 49.184H37.8465L37.9185 49.424H37.2945L37.3665 49.664H38.4465L38.5665 50.024H37.9905L38.1585 50.504H38.2065L38.2545 50.624H38.7825L38.8305 50.744H37.3425L37.3665 50.864H38.4465L38.5425 51.104H38.3985L38.4945 51.344H38.6385L38.7585 51.656L38.8545 51.344H39.5505L39.6225 51.104H39.6945L39.7665 50.864H39.2865L39.3105 50.744H40.0065L40.0545 50.624H39.7425L39.7665 50.504H39.2865L39.4545 50.024H40.8225L40.9425 49.664H40.5105L40.6065 49.424H40.1265L40.1985 49.184H41.3985L41.5665 48.704H39.4305L39.4785 48.584H40.1985L40.2465 48.464H39.8625L39.9105 48.344H40.7265L40.8465 47.984H40.6305L40.6785 47.864H40.4625L40.6305 47.384H41.1105L41.1825 47.144H41.3265V47.096C41.3585 47.016 41.3985 46.944 41.4465 46.88C41.4945 46.8 41.5585 46.728 41.6385 46.664H41.2785C41.4065 46.568 41.5665 46.52 41.7585 46.52H45.8145C45.9585 46.52 46.0865 46.568 46.1985 46.664H46.5585C46.6865 46.76 46.7505 46.904 46.7505 47.096V47.144H46.6305C46.6305 47.16 46.6225 47.176 46.6065 47.192C46.6065 47.208 46.6065 47.232 46.6065 47.264L46.5585 47.384H46.0785L45.8865 47.864H46.1025L46.0545 47.984H46.2465L46.1025 48.344H45.2865L45.2385 48.464H45.6225L45.5745 48.584H44.8305L44.7825 48.704H46.9185L46.7265 49.184H45.5265L45.4305 49.424H45.9105L45.8145 49.664H46.2465L46.0785 50.024H44.7345L44.5185 50.504H44.9985L44.9505 50.624H45.2865L45.2385 50.744H44.5185L44.4705 50.864H44.9745L44.8785 51.104H44.8065L44.7105 51.344H44.0385L43.8945 51.704ZM41.5425 51.944H42.8145L42.9105 51.704H36.6945L36.7905 51.944H38.2305L38.2785 52.064H37.6545L37.7745 52.424H38.7345L38.8785 52.064H41.5185L41.5425 51.944ZM39.3105 52.544L39.3585 52.424H39.0225L39.0705 52.544H38.9745L39.0225 52.688L39.0705 52.544H39.3105ZM62.1201 52.064C62.1361 52.144 62.1441 52.224 62.1441 52.304C62.1441 52.384 62.1441 52.464 62.1441 52.544H60.4401V52.784H59.4561V53.024H60.3921V53.144H59.3121V53.504H58.7121V53.624H60.0561C60.0561 53.672 60.0481 53.712 60.0321 53.744H59.9601V53.864H60.1761V53.888C60.1761 53.952 60.1681 54.024 60.1521 54.104C60.1521 54.184 60.1441 54.264 60.1281 54.344H59.9601L59.8881 54.824H60.2481C60.2481 54.888 60.2321 54.968 60.2001 55.064H60.1281C60.1121 55.128 60.0961 55.192 60.0801 55.256C60.0641 55.304 60.0481 55.36 60.0321 55.424H60.2241C60.2081 55.504 60.1841 55.584 60.1521 55.664C60.1201 55.744 60.0881 55.824 60.0561 55.904H59.6961L59.6001 56.144H59.6481C59.6161 56.208 59.6001 56.248 59.6001 56.264H59.5041C59.4401 56.424 59.3521 56.584 59.2401 56.744H59.2881C59.2721 56.776 59.2481 56.816 59.2161 56.864C59.1841 56.912 59.1521 56.952 59.1201 56.984H59.0961L58.8081 57.344C58.7921 57.36 58.7761 57.376 58.7601 57.392C58.7441 57.408 58.7201 57.432 58.6881 57.464H58.5681C58.5041 57.528 58.4401 57.592 58.3761 57.656C58.3121 57.704 58.2401 57.76 58.1601 57.824H57.4401L56.9361 58.184H57.0321C57.0001 58.2 56.9681 58.216 56.9361 58.232C56.9041 58.248 56.8721 58.272 56.8401 58.304H56.6721C56.6401 58.32 56.6001 58.336 56.5521 58.352C56.5041 58.368 56.4641 58.392 56.4321 58.424H57.7281C57.6481 58.472 57.5601 58.52 57.4641 58.568C57.3681 58.6 57.2721 58.632 57.1761 58.664H56.7681C56.6561 58.712 56.5361 58.76 56.4081 58.808C56.2801 58.84 56.1521 58.872 56.0241 58.904H56.1201C55.9281 58.952 55.7281 58.992 55.5201 59.024C55.3121 59.072 55.0961 59.112 54.8721 59.144H55.6161C55.3601 59.176 55.0961 59.2 54.8241 59.216C54.5521 59.232 54.2721 59.24 53.9841 59.24C53.6801 59.24 53.3921 59.232 53.1201 59.216C52.8641 59.2 52.6001 59.176 52.3281 59.144H51.5601C51.3521 59.112 51.1361 59.072 50.9121 59.024C50.7041 58.992 50.5041 58.952 50.3121 58.904H50.2401C50.1121 58.872 49.9841 58.84 49.8561 58.808C49.7441 58.76 49.6241 58.712 49.4961 58.664H49.8801C49.8001 58.632 49.7121 58.6 49.6161 58.568C49.5201 58.52 49.4321 58.472 49.3521 58.424H48.0561L47.8401 58.304H48.0081L47.7921 58.184H47.6961C47.5041 58.056 47.3361 57.936 47.1921 57.824H47.9121C47.8481 57.76 47.7841 57.704 47.7201 57.656C47.6561 57.592 47.5921 57.528 47.5281 57.464H47.6481C47.6321 57.432 47.6161 57.408 47.6001 57.392C47.5841 57.376 47.5601 57.36 47.5281 57.344L47.2401 56.984H47.2641L47.0961 56.744H47.0481C46.9361 56.584 46.8481 56.424 46.7841 56.264H46.8561C46.8241 56.2 46.8081 56.16 46.8081 56.144H46.7361L46.6401 55.904H47.0001C46.9841 55.824 46.9601 55.744 46.9281 55.664C46.8961 55.584 46.8641 55.504 46.8321 55.424H46.6401C46.6241 55.36 46.6081 55.304 46.5921 55.256C46.5761 55.192 46.5601 55.128 46.5441 55.064H46.4001L46.3281 54.824H46.0881L46.0161 54.344H46.2561C46.2401 54.264 46.2241 54.184 46.2081 54.104C46.2081 54.024 46.2081 53.952 46.2081 53.888V53.864H45.7761V53.744H45.6561C45.6561 53.712 45.6481 53.688 45.6321 53.672C45.6321 53.656 45.6321 53.64 45.6321 53.624H46.9761C46.9761 53.576 46.9681 53.536 46.9521 53.504H45.6081V53.144H46.1841V53.024H46.4721V52.784H46.9761V52.544H45.5121C45.5121 52.464 45.5121 52.384 45.5121 52.304C45.5121 52.224 45.5201 52.144 45.5361 52.064H45.2241V51.824H47.6001C47.6161 51.776 47.6241 51.712 47.6241 51.632V51.464H46.9761C46.9761 51.4 46.9761 51.344 46.9761 51.296C46.9921 51.232 47.0001 51.168 47.0001 51.104H47.2401L47.3121 50.624H46.5201C46.5361 50.56 46.5521 50.504 46.5681 50.456C46.5841 50.392 46.6001 50.328 46.6161 50.264H46.4481C46.4801 50.184 46.5041 50.104 46.5201 50.024C46.5521 49.928 46.5841 49.848 46.6161 49.784H46.6401C46.6561 49.752 46.6721 49.712 46.6881 49.664C46.7041 49.616 46.7201 49.576 46.7361 49.544H46.7121C46.7121 49.528 46.7281 49.488 46.7601 49.424H46.8801C46.9441 49.264 47.0321 49.104 47.1441 48.944H46.6641L46.8081 48.704H47.6961C47.7121 48.672 47.7441 48.632 47.7921 48.584H46.0401C46.0721 48.52 46.1121 48.464 46.1601 48.416C46.2241 48.352 46.2801 48.288 46.3281 48.224H46.8801C46.9601 48.144 47.0401 48.064 47.1201 47.984C47.2161 47.888 47.3041 47.808 47.3841 47.744H48.4881C48.6321 47.616 48.8001 47.496 48.9921 47.384H49.4481C49.5121 47.336 49.5761 47.296 49.6401 47.264C49.7201 47.216 49.7921 47.176 49.8561 47.144H48.4401C48.5841 47.064 48.7601 46.984 48.9681 46.904H49.6161C49.9841 46.76 50.3681 46.64 50.7681 46.544H50.0481C50.8321 46.368 51.6641 46.28 52.5441 46.28C53.4241 46.28 54.2561 46.368 55.0401 46.544H55.7841C56.1841 46.64 56.5601 46.76 56.9121 46.904H56.2401C56.4481 46.984 56.6241 47.064 56.7681 47.144H58.1841C58.2641 47.176 58.3361 47.216 58.4001 47.264C58.4801 47.296 58.5521 47.336 58.6161 47.384H58.1601L58.6641 47.744H57.5601C57.6561 47.808 57.7441 47.888 57.8241 47.984C57.9201 48.064 58.0081 48.144 58.0881 48.224H57.5361C57.5841 48.288 57.6321 48.352 57.6801 48.416C57.7441 48.464 57.7921 48.52 57.8241 48.584H59.6001L59.6721 48.704H58.8081L58.9521 48.944H59.4321C59.5441 49.104 59.6321 49.264 59.6961 49.424H59.5761C59.6081 49.488 59.6241 49.528 59.6241 49.544H59.6721L59.7681 49.784H59.7441C59.7761 49.848 59.8081 49.928 59.8401 50.024C59.8721 50.104 59.8961 50.184 59.9121 50.264H60.1521L60.2241 50.624H60.0801C60.1121 50.688 60.1281 50.768 60.1281 50.864C60.1441 50.944 60.1601 51.024 60.1761 51.104H60.3681C60.3841 51.168 60.3921 51.232 60.3921 51.296C60.3921 51.344 60.4001 51.4 60.4161 51.464H59.4801V51.632C59.4801 51.712 59.4881 51.776 59.5041 51.824H59.0241V52.064H62.1201ZM52.9041 51.104C52.8881 51.168 52.8721 51.232 52.8561 51.296C52.8561 51.344 52.8561 51.4 52.8561 51.464H53.5281C53.5121 51.512 53.5041 51.56 53.5041 51.608C53.5041 51.656 53.5041 51.704 53.5041 51.752V51.824H53.6001V51.752C53.6001 51.704 53.5921 51.656 53.5761 51.608C53.5761 51.56 53.5761 51.512 53.5761 51.464H54.5121C54.5121 51.4 54.5041 51.344 54.4881 51.296C54.4881 51.232 54.4881 51.168 54.4881 51.104H54.2961C54.2801 51.008 54.2561 50.92 54.2241 50.84C54.2081 50.76 54.1841 50.688 54.1521 50.624H54.3201C54.2561 50.48 54.1601 50.36 54.0321 50.264H53.7921C53.6321 50.168 53.4241 50.12 53.1681 50.12C52.9121 50.12 52.7121 50.168 52.5681 50.264H52.7361C52.6721 50.312 52.6161 50.368 52.5681 50.432C52.5201 50.48 52.4801 50.544 52.4481 50.624H53.2401C53.2241 50.688 53.2001 50.76 53.1681 50.84C53.1521 50.92 53.1361 51.008 53.1201 51.104H52.9041ZM54.5361 52.544H56.2401V52.064H53.1441C53.1281 52 53.1201 51.92 53.1201 51.824H51.1281C51.1281 51.92 51.1201 52 51.1041 52.064H51.4161V52.544H52.8801V52.784H52.3521V53.024H52.0641V53.144H51.4881C51.4881 53.208 51.4881 53.272 51.4881 53.336C51.5041 53.384 51.5121 53.44 51.5121 53.504H53.4081V53.144H54.4881V53.024H53.5521V52.784H54.5361V52.544ZM54.1521 53.744V53.624H51.5361V53.744H51.6561V53.768C51.6561 53.784 51.6561 53.8 51.6561 53.816C51.6721 53.832 51.6801 53.848 51.6801 53.864H52.0881C52.1041 53.944 52.1121 54.024 52.1121 54.104C52.1121 54.184 52.1201 54.264 52.1361 54.344H51.8961C51.9281 54.552 51.9601 54.712 51.9921 54.824H52.2561C52.2881 54.92 52.3201 55 52.3521 55.064H52.5201C52.6641 55.288 52.9361 55.4 53.3361 55.4C53.7361 55.4 54.0081 55.288 54.1521 55.064H54.2481C54.2641 55.032 54.2801 55 54.2961 54.968C54.3121 54.92 54.3281 54.872 54.3441 54.824H53.9841C54.0001 54.744 54.0161 54.672 54.0321 54.608C54.0481 54.528 54.0641 54.44 54.0801 54.344H54.2481C54.2641 54.264 54.2721 54.184 54.2721 54.104C54.2721 54.024 54.2801 53.944 54.2961 53.864H54.0801V53.744H54.1521ZM61.2225 44.504V44.024H61.1985V43.664H61.4145V43.544H61.5585V43.064H61.4385V42.704H61.4625V42.224H61.5585V41.864H61.5105V41.648C61.5105 41.52 61.5265 41.432 61.5585 41.384H61.7985L61.8705 41.264H61.6785C61.8065 41.088 61.9825 41 62.2065 41H66.2625C66.4865 41 66.6625 41.088 66.7905 41.264H66.9825L67.0545 41.384H66.7905C66.8385 41.448 66.8625 41.536 66.8625 41.648V41.864H66.9105V42.224H66.8145V42.704H66.7905V43.064H66.9105V43.544H66.7665V43.664H66.5505V44.024H66.5745V44.504H66.7425V44.552C66.7425 44.696 66.6865 44.84 66.5745 44.984H66.2865C66.1745 45.128 66.0145 45.2 65.8065 45.2H61.7505C61.5425 45.2 61.3745 45.128 61.2465 44.984H61.5345C61.4385 44.856 61.3905 44.712 61.3905 44.552V44.504H61.2225ZM66.1665 49.544H68.4225V50.024H67.6065V50.264H66.6945V50.744H67.3905V50.864H66.9345V51.104H67.0065V51.344H67.1265V51.704H65.9265V52.064H66.7185V52.424H66.5745V52.664H66.9825V53.024H67.0785V53.384H66.9345V53.744H67.0545V53.984H66.9345V54.464H66.8865V54.824H66.7905V55.184H66.8865V55.424H66.9345V55.904H66.8385V56.144H66.9585V56.384H66.9345V56.744H67.0305V57.104H67.1025V57.224H66.9345V57.704H66.5985V58.184H66.8385V58.352C66.8385 58.432 66.8305 58.496 66.8145 58.544H66.6465C66.5985 58.704 66.5105 58.824 66.3825 58.904H66.8625C66.7825 58.968 66.6625 59 66.5025 59H62.2065C62.0625 59 61.9505 58.968 61.8705 58.904H61.3905C61.2465 58.824 61.1505 58.704 61.1025 58.544H61.2705C61.2545 58.496 61.2465 58.432 61.2465 58.352V58.184H61.0065V57.704H61.3425V57.224H61.5105V57.104H61.4385V56.744H61.3425V56.384H61.3665V56.144H61.2465V55.904H61.3425V55.424H61.2945V55.184H61.1985V54.824H61.2945V54.464H61.3425V53.984H61.4625V53.744H61.3425V53.384H61.4865V53.024H61.3905V52.664H60.9825V52.424H61.1265V52.064H60.3345V51.704H61.5345V51.344H61.4145V51.104H61.3425V50.864H61.7985V50.744H61.1025V50.264H62.0145V50.024H62.8305V49.544H60.5745V49.304H62.5665V48.824H61.8465V48.464H62.2785V47.984H61.5105V47.864H61.3425V47.624H61.1985V47.264H61.3665V47.168C61.3665 46.992 61.4065 46.864 61.4865 46.784H61.5105C61.6385 46.608 61.8145 46.52 62.0385 46.52H66.3345C66.5585 46.52 66.7345 46.608 66.8625 46.784H66.8145C66.9105 46.88 66.9585 47.008 66.9585 47.168V47.264H66.7905V47.624H66.9345V47.864H67.1025V47.984H67.8705V48.464H67.4385V48.824H68.1585V49.304H66.1665V49.544ZM81.9643 55.184H81.0043V55.424H81.0763V55.664H84.0763V56.144H82.9003V56.384H81.2683V56.744H83.8123V56.984H82.3963V57.104H82.2043V57.584H81.3643V57.824H82.1323V58.064H81.4363V58.352C81.4363 58.384 81.4283 58.416 81.4123 58.448C81.4123 58.48 81.4123 58.512 81.4123 58.544H81.9883C81.9883 58.56 81.9723 58.6 81.9403 58.664H82.1323C82.0203 58.888 81.8363 59 81.5803 59H77.5003C77.2603 59 77.0683 58.888 76.9243 58.664H76.7323L76.6603 58.544H76.0843C76.0683 58.512 76.0603 58.472 76.0603 58.424L75.8683 58.544H76.0843L75.8923 58.664H76.6363C76.3803 58.808 76.0923 58.928 75.7723 59.024H75.6523C75.5723 59.04 75.4843 59.056 75.3883 59.072C75.3083 59.104 75.2283 59.128 75.1483 59.144H75.0283C74.8523 59.176 74.6683 59.2 74.4763 59.216C74.3003 59.232 74.1163 59.24 73.9243 59.24C73.7163 59.24 73.5163 59.232 73.3243 59.216C73.1323 59.2 72.9483 59.176 72.7723 59.144H72.8923C72.8123 59.128 72.7243 59.104 72.6283 59.072C72.5323 59.056 72.4443 59.04 72.3643 59.024H72.4843C72.1483 58.928 71.8443 58.808 71.5723 58.664H70.8283L70.6123 58.544H70.3963C70.2843 58.464 70.1723 58.392 70.0603 58.328C69.9643 58.248 69.8683 58.16 69.7723 58.064H70.4923L70.2523 57.824H68.7643L68.5483 57.584H69.4123C69.2843 57.424 69.1723 57.264 69.0763 57.104H69.2683L69.1963 56.984H70.5883C70.5563 56.904 70.5163 56.824 70.4683 56.744H67.9243L67.7803 56.384H69.3883L69.3163 56.144H70.4923L70.3483 55.664H67.3483L67.2763 55.424H67.2283C67.1963 55.328 67.1803 55.248 67.1803 55.184H68.1163C68.1003 55.104 68.0843 55.024 68.0683 54.944C68.0523 54.864 68.0363 54.784 68.0203 54.704H69.4603C69.4443 54.672 69.4363 54.632 69.4363 54.584C69.4363 54.536 69.4363 54.496 69.4363 54.464H68.6923C68.6923 54.4 68.6843 54.344 68.6683 54.296C68.6683 54.232 68.6683 54.168 68.6683 54.104H68.1883C68.1883 54.04 68.1883 53.984 68.1883 53.936C68.1883 53.872 68.1803 53.808 68.1643 53.744H68.1163V53.624C68.1163 53.56 68.1083 53.504 68.0923 53.456C68.0923 53.392 68.0923 53.328 68.0923 53.264H67.7323C67.7163 53.2 67.7083 53.144 67.7083 53.096C67.7083 53.032 67.7083 52.968 67.7083 52.904H68.1643V52.424H68.2843V52.304H68.3323V51.824H68.8363V51.8C68.8363 51.72 68.8363 51.64 68.8363 51.56C68.8363 51.48 68.8443 51.408 68.8603 51.344H67.5643C67.5803 51.28 67.5883 51.224 67.5883 51.176C67.5883 51.112 67.5963 51.048 67.6123 50.984H68.6203V50.864H68.6683C68.6843 50.832 68.6923 50.792 68.6923 50.744C68.6923 50.696 68.7003 50.656 68.7163 50.624H68.7883L68.8603 50.264H68.3323L68.3803 50.144H68.3083C68.3243 50.08 68.3403 50.024 68.3563 49.976C68.3723 49.912 68.3883 49.848 68.4043 49.784H68.5483C68.5803 49.704 68.6043 49.624 68.6203 49.544C68.6523 49.448 68.6843 49.368 68.7163 49.304H68.6683L68.7163 49.184C68.7483 49.104 68.7803 49.024 68.8123 48.944C68.8603 48.848 68.9083 48.768 68.9563 48.704L69.1723 48.344H68.9323L69.1003 48.104H68.7883C68.8523 48.04 68.9163 47.96 68.9803 47.864H69.8203C69.8523 47.832 69.8843 47.792 69.9163 47.744C69.9643 47.696 70.0123 47.656 70.0603 47.624H69.2203C69.3323 47.512 69.4203 47.432 69.4843 47.384H70.2283C70.4043 47.24 70.5723 47.12 70.7323 47.024H70.4683C70.7883 46.832 71.1323 46.672 71.5003 46.544H71.1403C71.7163 46.368 72.3003 46.28 72.8923 46.28C73.5003 46.28 74.0683 46.368 74.5963 46.544H74.9563C75.3083 46.656 75.6363 46.816 75.9403 47.024H77.2123V46.544H76.6843V46.064H77.4043V45.704H77.3803V45.224H76.3243V44.984H76.5403V44.744H76.7083V44.624H76.5643V44.504H76.4923V44.384H76.4683V44.264H76.3963V44.144H76.3483V43.664H75.8443V43.184H76.3963V43.064H76.4683V42.584C76.4683 42.52 76.4843 42.44 76.5163 42.344H76.7563C76.8683 42.088 77.0683 41.96 77.3563 41.96H81.7963C82.0843 41.96 82.2843 42.088 82.3963 42.344H82.1323C82.1803 42.408 82.2043 42.496 82.2043 42.608V43.064H82.1323V43.184H81.5803V43.664H82.0843V44.144H82.1323V44.264H82.2043V44.384H82.2283V44.504H82.3003V44.624H82.4443V44.744H82.2763V44.984H82.0603V45.224H83.1163V45.704H83.1403V46.064H82.4203V46.544H82.9483V47.024H81.7963V47.384H81.6763V47.624H82.5163V47.864H81.6763V48.104H81.9643V48.344H82.2283V48.704H82.2043V49.304H82.2523V49.784H82.1083V50.144H82.1563V50.264H82.6843V50.624H83.2603V50.864H82.5883V50.984H82.1563V51.344H82.6123V51.824H81.1483V52.304H81.3163V52.424H82.0363V52.544H82.2523V52.904H82.0123V53.264H82.3483V53.624H82.3723V53.744H82.1083V54.104H82.3003V54.464H84.3403V54.704H81.9643V55.184ZM75.4843 54.464C75.5163 54.512 75.5483 54.56 75.5803 54.608C75.6123 54.64 75.6443 54.672 75.6763 54.704H74.2363C74.4283 54.864 74.6923 54.944 75.0283 54.944C75.3483 54.944 75.6123 54.864 75.8203 54.704H78.1963C78.2283 54.672 78.2603 54.64 78.2923 54.608C78.3403 54.56 78.3723 54.512 78.3883 54.464H76.3483C76.3963 54.368 76.4443 54.248 76.4923 54.104H76.3003C76.3163 54.04 76.3243 53.984 76.3243 53.936C76.3403 53.872 76.3483 53.808 76.3483 53.744H76.6363V53.624H76.6123V53.552C76.6123 53.504 76.6123 53.456 76.6123 53.408C76.6123 53.36 76.6203 53.312 76.6363 53.264H76.3003V52.904H76.5403V52.544H76.3483V52.424H75.6043V52.304H75.4603C75.4443 52.224 75.4363 52.144 75.4363 52.064C75.4363 51.984 75.4283 51.904 75.4123 51.824H76.8763V51.776C76.8603 51.6 76.8363 51.456 76.8043 51.344H76.3483C76.3003 51.184 76.2443 51.064 76.1803 50.984H76.6123C76.5963 50.952 76.5643 50.912 76.5163 50.864H77.1883C77.0763 50.752 76.9323 50.672 76.7563 50.624H76.1803C76.1163 50.608 76.0443 50.6 75.9643 50.6C75.9003 50.584 75.8283 50.576 75.7483 50.576C75.6683 50.576 75.5963 50.584 75.5323 50.6C75.4683 50.6 75.4043 50.608 75.3403 50.624H75.2683C75.0923 50.672 74.9483 50.752 74.8363 50.864H74.7883C74.7723 50.896 74.7403 50.936 74.6923 50.984H73.7083C73.6443 51.064 73.5883 51.184 73.5403 51.344H74.8123C74.7963 51.408 74.7803 51.488 74.7643 51.584C74.7483 51.664 74.7323 51.744 74.7163 51.824H74.2363V51.968C74.2203 52.016 74.2123 52.072 74.2123 52.136C74.2123 52.184 74.2043 52.24 74.1883 52.304H74.1403V52.424H74.0443V52.544C74.0283 52.656 74.0283 52.776 74.0443 52.904H73.5883V53.264H73.9723C73.9723 53.312 73.9723 53.36 73.9723 53.408C73.9723 53.456 73.9803 53.504 73.9963 53.552V53.624C74.0123 53.656 74.0203 53.696 74.0203 53.744H74.0683L74.1403 54.104H74.6203C74.6523 54.248 74.7003 54.368 74.7643 54.464H75.4843Z" fill="#E50000"/>
<defs>
<linearGradient id="paint0_linear_186_324" x1="-1.1223e-06" y1="5.67966" x2="100" y2="94.3203" gradientUnits="userSpaceOnUse">
<stop offset="0.33" stop-color="#FF7918"/>
<stop offset="1" stop-color="#BC4A19"/>
</linearGradient>
</defs>
</svg>
