<svg width="24" height="24" viewBox="0 0 24 24" fill="none" xmlns="http://www.w3.org/2000/svg">
<path d="M20.454 12.1177C20.454 11.5164 20.3958 10.8956 20.2988 10.3137H11.8992V13.7472H16.7101C16.5161 14.853 15.8759 15.8229 14.9254 16.4437L17.7964 18.6745C19.4841 17.1032 20.454 14.8142 20.454 12.1177Z" fill="#4280EF"/>
<path d="M11.8992 20.8084C14.3046 20.8084 16.3221 20.013 17.7964 18.6551L14.9254 16.4437C14.13 16.9868 13.1019 17.2972 11.8992 17.2972C9.57132 17.2972 7.61204 15.7259 6.89429 13.6309L3.94568 15.9005C5.45878 18.9073 8.52378 20.8084 11.8992 20.8084Z" fill="#34A353"/>
<path d="M6.8943 13.6114C6.52572 12.5057 6.52572 11.303 6.8943 10.1973L3.94569 7.9082C2.68477 10.43 2.68477 13.3981 3.94569 15.9005L6.8943 13.6114Z" fill="#F6B704"/>
<path d="M11.8992 6.53091C13.1601 6.51151 14.4016 6.99648 15.3133 7.86943L17.8546 5.30879C16.2445 3.79569 14.1106 2.98094 11.8992 3.00034C8.52378 3.00034 5.45878 4.90142 3.94568 7.90822L6.89429 10.1973C7.61204 8.08281 9.57132 6.53091 11.8992 6.53091Z" fill="#E54335"/>
</svg>
