<svg width="100" height="100" viewBox="0 0 100 100" fill="none" xmlns="http://www.w3.org/2000/svg">
<path d="M50 100C77.6142 100 100 77.6142 100 50C100 22.3858 77.6142 0 50 0C22.3858 0 0 22.3858 0 50C0 77.6142 22.3858 100 50 100Z" fill="url(#paint0_linear_186_328)"/>
<path d="M82.6804 48.3403C82.0904 49.3703 82.0904 50.6203 82.6804 51.6503C85.6604 56.8003 85.8804 63.3603 82.7104 68.8903C79.5304 74.4103 73.7304 77.5003 67.7804 77.4903C66.5804 77.4903 65.5004 78.1203 64.9104 79.1503C61.9404 84.3003 56.3804 87.7803 50.0104 87.7803C43.6404 87.7803 38.0804 84.3103 35.1104 79.1503C34.5204 78.1203 33.4404 77.4903 32.2404 77.4903C26.2804 77.4903 20.5104 74.4203 17.3104 68.8903C14.1304 63.3703 14.3404 56.8203 17.3204 51.6703C17.9204 50.6403 17.9204 49.3803 17.3204 48.3503C14.3404 43.2003 14.1204 36.6403 17.3104 31.1303C20.4904 25.6003 26.2904 22.5203 32.2404 22.5303C33.4404 22.5303 34.5204 21.9003 35.1104 20.8703C38.0604 15.7103 43.6304 12.2303 50.0004 12.2303C56.3704 12.2303 61.9304 15.7003 64.9004 20.8603C65.4904 21.8903 66.5704 22.5203 67.7704 22.5203C73.7304 22.5203 79.5104 25.5903 82.7004 31.1203C85.8804 36.6503 85.6604 43.2103 82.6704 48.3603H82.6904L82.6804 48.3403Z" fill="#FFA08B"/>
<path d="M27.608 44.944C27.64 45.008 27.672 45.072 27.704 45.136C27.736 45.184 27.76 45.24 27.776 45.304H26.888C26.92 45.368 26.952 45.448 26.984 45.544C27.016 45.624 27.048 45.704 27.08 45.784H23.312L23.456 46.264H25.4L25.472 46.624H25.208C25.224 46.656 25.232 46.696 25.232 46.744C25.232 46.792 25.24 46.832 25.256 46.864H24.608L24.632 47.104H25.136C25.136 47.168 25.136 47.232 25.136 47.296C25.152 47.344 25.16 47.4 25.16 47.464H26.048C26.064 47.528 26.072 47.584 26.072 47.632C26.072 47.68 26.072 47.736 26.072 47.8V47.824H23.816C23.816 47.904 23.816 47.984 23.816 48.064C23.832 48.144 23.84 48.224 23.84 48.304H24.344C24.344 48.384 24.344 48.464 24.344 48.544C24.36 48.624 24.368 48.704 24.368 48.784H25.232V48.904H24.896V49.384H24.992V49.744H26.408V50.224H25.064V50.464H24.92C24.92 50.496 24.92 50.536 24.92 50.584C24.92 50.632 24.912 50.672 24.896 50.704H24.464V51.184H24.512C24.496 51.232 24.488 51.296 24.488 51.376V51.424H25.376C25.376 51.488 25.368 51.552 25.352 51.616C25.352 51.664 25.352 51.72 25.352 51.784H25.712C25.712 51.864 25.704 51.944 25.688 52.024C25.688 52.104 25.68 52.184 25.664 52.264H25.136C25.12 52.296 25.112 52.336 25.112 52.384C25.112 52.432 25.104 52.472 25.088 52.504H22.208C22.208 52.568 22.192 52.648 22.16 52.744H24.68C24.648 52.84 24.632 52.92 24.632 52.984H24.992C24.976 53.048 24.96 53.112 24.944 53.176C24.944 53.224 24.928 53.28 24.896 53.344L24.824 53.584H24.128L24.08 53.704H25.208C25.176 53.768 25.16 53.808 25.16 53.824H24.44L24.392 53.944H24.368C24.336 54.024 24.304 54.104 24.272 54.184C24.24 54.264 24.2 54.344 24.152 54.424H23.792L23.528 54.904H23.936L23.792 55.144H23.816C23.784 55.176 23.752 55.216 23.72 55.264C23.688 55.312 23.656 55.352 23.624 55.384H23.456C23.408 55.432 23.376 55.472 23.36 55.504C23.312 55.568 23.264 55.632 23.216 55.696C23.168 55.744 23.112 55.8 23.048 55.864H22.976C22.896 55.944 22.808 56.024 22.712 56.104C22.632 56.184 22.544 56.264 22.448 56.344H22.664L22.16 56.704H22.184C22.056 56.784 21.92 56.864 21.776 56.944C21.632 57.024 21.48 57.104 21.32 57.184H21.296C21.136 57.264 20.936 57.344 20.696 57.424H20.72C20.4 57.536 20.064 57.632 19.712 57.712C19.36 57.792 19 57.856 18.632 57.904H19.136C18.88 57.936 18.616 57.96 18.344 57.976C18.072 57.992 17.792 58 17.504 58H10.472C10.328 58 10.216 57.968 10.136 57.904H9.632C9.472 57.808 9.376 57.648 9.344 57.424H9.32V57.184H9.368V56.704H9.32V56.344H9.128V55.864H9.2V55.504H9.176V55.384H9.368V55.144H9.344V54.904H8.912V54.424H9.296V53.944H9.32V53.824H10.04V53.704H8.936V53.584H9.632V52.984H9.296V52.744H9.272V52.504H9.896V52.264H7.136V51.784H7.04V51.424H7.352V51.184H8.336V50.704H8.96V50.464H9.32V50.224H9.704V49.744H10.256V49.384H10.784V48.904H9.176V48.784H8.648V48.304H7.592V47.824H10.328V47.464H8.216V47.104H9.368V46.864H9.32V46.624H9.128V46.264H8.096V45.784H11.84V45.304H12.728V44.944H8.408V44.464H11.24V44.344H9.008V44.224H13.544V43.744H12.968V43.624H7.256V43.144H7.952V42.784H9.44V42.664H10.232V42.424H9.8V42.304H9.296V42.064H9.344V41.848C9.344 41.816 9.344 41.792 9.344 41.776C9.36 41.744 9.368 41.72 9.368 41.704H9.464C9.544 41.368 9.76 41.2 10.112 41.2H17.024C18.256 41.2 19.376 41.368 20.384 41.704H20.288C20.576 41.8 20.872 41.92 21.176 42.064H21.128C21.208 42.096 21.288 42.136 21.368 42.184C21.464 42.216 21.544 42.256 21.608 42.304H22.112L22.328 42.424H22.736C22.816 42.456 22.88 42.496 22.928 42.544C22.992 42.592 23.056 42.632 23.12 42.664H22.328C22.36 42.68 22.392 42.696 22.424 42.712C22.456 42.728 22.48 42.752 22.496 42.784H21.008L21.464 43.144H20.744C20.92 43.288 21.08 43.448 21.224 43.624H26.936C26.952 43.64 26.968 43.656 26.984 43.672C27 43.688 27.016 43.712 27.032 43.744H27.632C27.696 43.808 27.76 43.888 27.824 43.984C27.888 44.064 27.944 44.144 27.992 44.224H23.456C23.472 44.24 23.488 44.256 23.504 44.272C23.52 44.288 23.536 44.312 23.552 44.344H25.784L25.856 44.464H23.024C23.136 44.624 23.224 44.784 23.288 44.944H27.608ZM19.136 46.624C19.04 46.48 18.92 46.36 18.776 46.264H16.832C16.48 46.008 16.048 45.88 15.536 45.88H14.096V46.264H15.128V46.624H15.32V46.864H15.368V47.104H14.216V47.464H16.328V47.824H13.592V48.304H14.648V48.784H15.176V48.904H16.784V49.384H16.256V49.744H15.704V50.224H15.32V50.464H14.96V50.704H14.336V51.184H13.352V51.424H13.04V51.784H13.136V52.264H15.896V52.504H15.272V52.744H15.296V52.984H15.632V53.32H17.192C17.656 53.32 18.048 53.208 18.368 52.984H17.984C18.032 52.952 18.08 52.92 18.128 52.888C18.176 52.84 18.216 52.792 18.248 52.744H15.752C15.784 52.712 15.816 52.68 15.848 52.648C15.88 52.6 15.904 52.552 15.92 52.504H18.8C18.832 52.472 18.856 52.44 18.872 52.408C18.888 52.36 18.904 52.312 18.92 52.264H19.472C19.504 52.184 19.528 52.104 19.544 52.024C19.56 51.944 19.576 51.864 19.592 51.784H19.232C19.248 51.72 19.256 51.664 19.256 51.616C19.256 51.552 19.264 51.488 19.28 51.424H18.392V51.376C18.392 51.344 18.392 51.312 18.392 51.28C18.408 51.248 18.416 51.216 18.416 51.184H18.368C18.368 51.104 18.368 51.024 18.368 50.944C18.368 50.848 18.376 50.768 18.392 50.704H18.824V50.464H18.968L18.992 50.224H20.336V49.744H18.92V49.384H18.824V48.904H19.16V48.784H18.272V48.304H17.744C17.744 48.224 17.744 48.144 17.744 48.064C17.744 47.984 17.736 47.904 17.72 47.824H19.976V47.8C19.976 47.736 19.968 47.68 19.952 47.632C19.952 47.568 19.952 47.512 19.952 47.464H19.064C19.048 47.4 19.032 47.344 19.016 47.296C19 47.232 18.984 47.168 18.968 47.104H18.464C18.448 47.056 18.432 47.016 18.416 46.984C18.4 46.936 18.384 46.896 18.368 46.864H19.016C19 46.816 18.976 46.776 18.944 46.744C18.928 46.696 18.904 46.656 18.872 46.624H19.136ZM38.8216 56.704V56.944H40.9096V57.352C40.9096 57.384 40.9016 57.408 40.8856 57.424H39.7576C39.7256 57.648 39.6216 57.808 39.4456 57.904H39.2296C39.1496 57.968 39.0376 58 38.8936 58H34.6936C34.5496 58 34.4376 57.968 34.3576 57.904H34.5496C34.3896 57.792 34.2936 57.632 34.2616 57.424H35.4136V56.944H34.4536C34.3736 57.024 34.2856 57.104 34.1896 57.184C34.1096 57.264 34.0216 57.344 33.9256 57.424H33.6616C33.3736 57.632 33.0856 57.792 32.7976 57.904H32.0296C31.9176 57.952 31.7896 57.992 31.6456 58.024C31.5176 58.072 31.3816 58.112 31.2376 58.144H31.0456C30.8856 58.176 30.7176 58.2 30.5416 58.216C30.3816 58.232 30.2136 58.24 30.0376 58.24C29.8456 58.24 29.6536 58.232 29.4616 58.216C29.2856 58.2 29.1096 58.176 28.9336 58.144H29.1256C28.9656 58.112 28.8056 58.072 28.6456 58.024C28.5016 57.992 28.3576 57.952 28.2136 57.904H28.9576C28.6056 57.776 28.2856 57.616 27.9976 57.424H28.2616C28.1496 57.344 28.0456 57.264 27.9496 57.184C27.8536 57.104 27.7576 57.024 27.6616 56.944H26.4616L26.2456 56.704C26.2296 56.672 26.2056 56.632 26.1736 56.584C26.1416 56.536 26.1096 56.496 26.0776 56.464H26.7976C26.7656 56.4 26.7256 56.344 26.6776 56.296C26.6456 56.232 26.6136 56.168 26.5816 56.104H26.3656C26.3656 56.088 26.3496 56.048 26.3176 55.984H26.1016L26.0296 55.864H26.0536L25.9096 55.504H25.7896C25.7736 55.44 25.7576 55.384 25.7416 55.336C25.7256 55.272 25.7096 55.208 25.6936 55.144H24.7816C24.7336 54.968 24.7096 54.808 24.7096 54.664H25.5016V54.424C25.5016 54.344 25.5016 54.264 25.5016 54.184C25.5016 54.088 25.5096 54.008 25.5256 53.944H26.2456C26.2616 53.864 26.2776 53.784 26.2936 53.704C26.3096 53.608 26.3256 53.528 26.3416 53.464H25.6696L25.7176 53.344H25.7416L25.7896 53.224H25.7656C25.7976 53.16 25.8296 53.104 25.8616 53.056C25.8936 52.992 25.9176 52.928 25.9336 52.864H24.5176L24.6616 52.624H24.1336C24.1816 52.576 24.2136 52.536 24.2296 52.504H25.0936C25.1256 52.472 25.1576 52.432 25.1896 52.384C25.2216 52.336 25.2536 52.296 25.2856 52.264H25.3336C25.4936 52.072 25.6616 51.912 25.8376 51.784H23.8696C23.9816 51.704 24.1016 51.624 24.2296 51.544C24.3416 51.448 24.4616 51.368 24.5896 51.304H25.9096L26.1256 51.184H26.7976C26.8296 51.152 26.8696 51.128 26.9176 51.112C26.9656 51.096 27.0056 51.08 27.0376 51.064H27.3256C27.6136 50.92 27.9256 50.8 28.2616 50.704H29.7256C29.9496 50.624 30.1736 50.56 30.3976 50.512C30.6376 50.448 30.8856 50.392 31.1416 50.344H30.5416L30.9256 50.272L33.4696 49.864V49.744H34.6936V49.624H32.3896V49.504H33.7576C33.7576 49.424 33.7576 49.36 33.7576 49.312C33.7576 49.248 33.7496 49.192 33.7336 49.144C33.7176 49 33.6616 48.88 33.5656 48.784H33.1576C33.1416 48.768 33.1016 48.744 33.0376 48.712L32.8696 48.784H32.4616C32.3976 48.832 32.3336 48.888 32.2696 48.952C32.2056 49 32.1336 49.064 32.0536 49.144H32.0776C31.9016 49.32 31.6776 49.408 31.4056 49.408H27.3256C27.0856 49.408 26.9256 49.32 26.8456 49.144H26.8216C26.7736 49.064 26.7576 48.976 26.7736 48.88V48.784H27.1576C27.1736 48.752 27.1816 48.712 27.1816 48.664H25.6456C25.6456 48.6 25.6616 48.52 25.6936 48.424H29.1496C29.1496 48.408 29.1656 48.368 29.1976 48.304H27.0616C27.1096 48.144 27.1816 47.984 27.2776 47.824H27.6856C27.7336 47.744 27.7896 47.664 27.8536 47.584C27.9176 47.504 27.9816 47.424 28.0456 47.344H26.2456L26.4616 47.104H29.9416C30.0056 47.04 30.0696 46.984 30.1336 46.936C30.2136 46.872 30.2856 46.808 30.3496 46.744H28.1416L28.2856 46.624H27.6136C27.6936 46.56 27.7816 46.504 27.8776 46.456C27.9736 46.392 28.0696 46.328 28.1656 46.264H29.2936C29.6296 46.072 29.9816 45.912 30.3496 45.784H30.5176C30.9496 45.624 31.4296 45.504 31.9576 45.424C32.5016 45.328 33.0936 45.28 33.7336 45.28C35.0456 45.28 36.1576 45.448 37.0696 45.784H36.8776C37.0536 45.848 37.2216 45.92 37.3816 46C37.5576 46.08 37.7256 46.168 37.8856 46.264H36.7576L37.2616 46.624H37.9336L38.0776 46.744H40.2856L40.6456 47.104H37.1656C37.1976 47.136 37.2296 47.176 37.2616 47.224C37.2936 47.272 37.3256 47.312 37.3576 47.344H39.1336C39.1976 47.408 39.2536 47.488 39.3016 47.584C39.3656 47.664 39.4136 47.744 39.4456 47.824H39.0616L39.2776 48.304H41.4136C41.4456 48.368 41.4616 48.408 41.4616 48.424H38.0056C38.0376 48.456 38.0536 48.496 38.0536 48.544C38.0696 48.592 38.0856 48.632 38.1016 48.664H38.8936C38.8936 48.68 38.8936 48.696 38.8936 48.712C38.9096 48.728 38.9176 48.752 38.9176 48.784H39.3256L39.4696 49.504H38.0776C38.0776 49.52 38.0776 49.536 38.0776 49.552C38.0936 49.568 38.1016 49.592 38.1016 49.624H40.4056V49.744H39.2056V49.864C39.2216 49.944 39.2296 50.024 39.2296 50.104C39.2296 50.184 39.2296 50.264 39.2296 50.344H39.8536V50.704H38.3656V51.064H38.1016V51.184H37.4536V51.304H36.1336V51.784H38.1016V52.264H38.0536V52.504H37.1896V52.624H37.7176V52.864H39.3016V53.224H39.0136V53.464H39.2056V53.944H39.0616V54.664H38.2696V55.144H39.1816V55.504H39.3016V55.984H39.5176V56.104H39.7096V56.464H38.9656V56.704H38.8216ZM31.8616 48.64C31.7496 48.64 31.6696 48.648 31.6216 48.664H32.1256C32.0776 48.648 31.9896 48.64 31.8616 48.64ZM32.0296 52.816L31.8136 52.864H32.0296V52.816ZM31.2136 53.464H31.8856C31.7096 53.592 31.6216 53.752 31.6216 53.944H30.9016V54.016C30.9016 54.176 30.9576 54.312 31.0696 54.424C31.1496 54.536 31.3096 54.616 31.5496 54.664H32.1256C32.3656 54.616 32.5736 54.536 32.7496 54.424C32.8936 54.296 33.0296 54.136 33.1576 53.944H33.2776C33.3096 53.864 33.3416 53.792 33.3736 53.728C33.4056 53.648 33.4296 53.56 33.4456 53.464H33.2536C33.2536 53.432 33.2536 53.408 33.2536 53.392C33.2696 53.376 33.2776 53.36 33.2776 53.344H33.3016V53.224H33.5896C33.6056 53.16 33.6136 53.104 33.6136 53.056C33.6136 52.992 33.6136 52.928 33.6136 52.864H33.2056L32.0296 53.128C31.9656 53.144 31.9016 53.16 31.8376 53.176C31.7896 53.192 31.7416 53.208 31.6936 53.224C31.6456 53.24 31.5976 53.256 31.5496 53.272C31.5016 53.288 31.4616 53.312 31.4296 53.344H31.4056C31.3736 53.36 31.3416 53.376 31.3096 53.392C31.2776 53.408 31.2456 53.432 31.2136 53.464ZM31.3336 54.664H30.7336C30.7976 54.68 30.8936 54.688 31.0216 54.688C31.0696 54.688 31.1176 54.688 31.1656 54.688C31.2296 54.688 31.2856 54.68 31.3336 54.664ZM54.6153 56.224H58.1913V56.704H56.1513V57.064H55.8153V57.304H54.3273V57.424H55.0713C55.0393 57.648 54.9433 57.808 54.7833 57.904H54.2553C54.1753 57.968 54.0553 58 53.8953 58H49.3113C49.1673 58 49.0553 57.968 48.9753 57.904H49.5033C49.3433 57.808 49.2473 57.648 49.2153 57.424H48.4473V57.304H49.9353V57.064H50.2713V56.704H52.3113V56.224H48.7353V55.744H49.6233V55.624H48.8313V55.384H48.8553V55.144H48.4713V54.664H48.7833V54.184H47.7993V53.704H48.0393V53.224H49.1433V52.744H48.8793V52.504H48.7833V52.384H48.6873V52.024H48.8313V51.904H48.9513V51.664H48.9273V51.424H48.8553V51.184H47.8473V50.944H48.1113V50.896C48.1113 50.832 48.1033 50.776 48.0873 50.728C48.0873 50.68 48.0873 50.632 48.0873 50.584H48.5673C48.5513 50.504 48.5353 50.44 48.5193 50.392C48.5033 50.328 48.4873 50.272 48.4713 50.224H48.9033C48.8073 50.016 48.6713 49.856 48.4953 49.744H47.7273C47.5513 49.632 47.3193 49.576 47.0313 49.576C46.7433 49.576 46.5193 49.632 46.3593 49.744H46.9353C46.8553 49.808 46.7753 49.88 46.6953 49.96C46.6313 50.024 46.5833 50.112 46.5513 50.224H45.8313C45.7993 50.288 45.7673 50.408 45.7353 50.584H45.8553C45.8393 50.648 45.8313 50.752 45.8313 50.896V50.944H45.6633V51.184H46.4553V51.424H46.5033V51.664H46.4313V51.904H46.2633V52.024H46.0953V52.384H46.3593V52.504H46.5273V52.744H46.4313V53.224H47.0553V53.704H46.3833V54.184H46.5033V54.664H46.2393V55.144H46.5273V55.384H46.5033V55.504H46.5753V55.624H47.8953V55.744H48.4473V56.224H46.9593V56.704H47.0073V57.064H46.0953V57.304H47.1273V57.424H47.3913C47.3593 57.648 47.2553 57.808 47.0793 57.904H45.9753C45.8953 57.968 45.7833 58 45.6393 58H41.0793C40.9353 58 40.8233 57.968 40.7433 57.904H41.8473C41.6713 57.808 41.5673 57.648 41.5353 57.424H41.2713V57.304H40.2393V57.064H41.1513V56.704H41.1033V56.224H42.5913V55.744H42.0393V55.624H40.7193V55.504H40.6473V55.384H40.6713V55.144H40.3833V54.664H40.6473V54.184H40.5273V53.704H41.1993V53.224H40.5753V52.744H40.6713V52.504H40.5033V52.384H40.2393V52.024H40.4073V51.904H40.5753V51.664H40.6473V51.424H40.5993V51.184H39.8073V50.944H39.9753V50.584H39.8553V50.224H40.5753V49.744H39.9753V49.384H40.5033V49.144H40.6473V48.784H40.5513V48.424H40.5753V47.824H40.6953V47.584H40.6713V47.224H40.9833V47.104H40.7913V46.744H41.0793V46.624H40.1193V46.384H40.8153V46.024H42.1113C42.1433 45.928 42.1753 45.848 42.2073 45.784H41.4393C41.5673 45.608 41.7433 45.52 41.9673 45.52H46.1673C46.3913 45.52 46.5673 45.608 46.6953 45.784H47.1033C47.4553 45.624 47.8313 45.504 48.2313 45.424C48.6313 45.328 49.0473 45.28 49.4793 45.28C50.2793 45.28 50.9993 45.448 51.6393 45.784H51.9033C51.9833 45.816 52.0553 45.856 52.1193 45.904C52.1833 45.936 52.2473 45.976 52.3113 46.024H51.9753C52.0553 46.072 52.1353 46.128 52.2153 46.192C52.2953 46.24 52.3673 46.304 52.4313 46.384H54.3033C54.3993 46.448 54.4793 46.528 54.5433 46.624H53.2233C53.2393 46.64 53.2553 46.656 53.2713 46.672C53.2873 46.688 53.3033 46.712 53.3193 46.744H53.6553C53.7033 46.808 53.7513 46.872 53.7993 46.936C53.8473 46.984 53.8873 47.04 53.9193 47.104H54.1353L54.2073 47.224H53.8953L54.1113 47.584H54.1353C54.1673 47.664 54.2073 47.744 54.2553 47.824H54.1353C54.2153 48 54.2793 48.16 54.3273 48.304C54.3273 48.32 54.3433 48.36 54.3753 48.424H54.3513C54.3833 48.488 54.3993 48.552 54.3993 48.616C54.4153 48.664 54.4313 48.72 54.4473 48.784H54.5433C54.5753 48.848 54.5913 48.912 54.5913 48.976C54.6073 49.024 54.6233 49.08 54.6393 49.144H54.4713C54.5033 49.24 54.5193 49.32 54.5193 49.384H54.0153C54.0313 49.448 54.0393 49.512 54.0393 49.576C54.0393 49.624 54.0473 49.68 54.0633 49.744H54.8313C54.8473 49.808 54.8553 49.888 54.8553 49.984C54.8713 50.064 54.8793 50.144 54.8793 50.224H54.4473V50.584H53.9913V50.944H53.7273V51.184H54.7353V51.424H54.8073V51.664H54.8313V51.904H54.7113V52.024H54.5673V52.384H54.6633V52.504H54.7593V52.744H55.0233V53.224H53.9193V53.704H53.6793V54.184H54.6633V54.664H54.3513V55.144H54.7353V55.384H54.7113V55.624H55.5033V55.744H54.6153V56.224ZM46.5513 46.024H46.2873C46.2873 46.04 46.2873 46.064 46.2873 46.096C46.3033 46.112 46.3113 46.136 46.3113 46.168V46.192C46.3433 46.16 46.3833 46.128 46.4313 46.096C46.4793 46.064 46.5193 46.04 46.5513 46.024ZM45.6153 46.384V46.624H47.6073L47.8953 46.384H45.6153ZM46.2873 46.744V46.96C46.3193 46.912 46.3833 46.84 46.4793 46.744H46.2873ZM70.1392 57.544H70.9072V57.904H70.3072V58.024H70.4752C70.4592 58.088 70.4512 58.144 70.4512 58.192C70.4512 58.256 70.4432 58.32 70.4272 58.384H70.4032V58.504H69.2752C69.2592 58.536 69.2512 58.576 69.2512 58.624C69.2512 58.672 69.2432 58.712 69.2272 58.744H70.6192C70.6032 58.824 70.5872 58.904 70.5712 58.984C70.5552 59.064 70.5392 59.144 70.5232 59.224H70.1392C70.1232 59.288 70.1072 59.344 70.0912 59.392C70.0752 59.456 70.0512 59.52 70.0192 59.584H69.2272L69.1312 59.824H69.5392L69.4432 60.064H69.4912C69.4592 60.144 69.4192 60.224 69.3712 60.304H69.3952L69.1792 60.664C69.1632 60.68 69.1472 60.696 69.1312 60.712C69.1312 60.728 69.1232 60.752 69.1072 60.784C69.0752 60.848 69.0352 60.904 68.9872 60.952C68.9392 61.016 68.8912 61.08 68.8432 61.144H68.7952L68.6752 61.264H69.1312L68.9152 61.504H68.3632C68.3152 61.536 68.2672 61.576 68.2192 61.624C68.1712 61.672 68.1312 61.712 68.0992 61.744H68.7472C68.6832 61.808 68.6032 61.864 68.5072 61.912C68.4272 61.976 68.3472 62.04 68.2672 62.104H69.1312C69.0352 62.168 68.9312 62.224 68.8192 62.272C68.7232 62.336 68.6192 62.4 68.5072 62.464H68.2672C68.1872 62.512 68.0992 62.552 68.0032 62.584C67.9072 62.632 67.8192 62.672 67.7392 62.704H66.3712C66.0672 62.816 65.7552 62.912 65.4352 62.992C65.1152 63.072 64.7872 63.136 64.4512 63.184H65.8672C65.6272 63.216 65.3792 63.24 65.1232 63.256C64.8672 63.272 64.6112 63.28 64.3552 63.28C64.0832 63.28 63.8112 63.272 63.5392 63.256C63.2832 63.24 63.0352 63.216 62.7952 63.184H61.3792C60.6592 63.088 59.9952 62.928 59.3872 62.704H60.7552C60.6592 62.672 60.5632 62.632 60.4672 62.584C60.3712 62.552 60.2752 62.512 60.1792 62.464H60.4192C60.3072 62.4 60.1952 62.336 60.0832 62.272C59.9712 62.224 59.8592 62.168 59.7472 62.104H58.9072C58.8112 62.04 58.7152 61.976 58.6192 61.912C58.5392 61.864 58.4592 61.808 58.3792 61.744H57.7312C57.6032 61.648 57.5072 61.568 57.4432 61.504H57.9952C57.9472 61.472 57.8992 61.432 57.8512 61.384C57.8032 61.336 57.7632 61.296 57.7312 61.264H57.2752C57.2592 61.232 57.2432 61.208 57.2272 61.192C57.2112 61.176 57.1872 61.16 57.1552 61.144H57.2272C57.1632 61.08 57.1072 61.016 57.0592 60.952C57.0112 60.904 56.9632 60.848 56.9152 60.784H56.8912C56.8752 60.752 56.8432 60.712 56.7952 60.664H56.8192C56.7712 60.6 56.7232 60.536 56.6752 60.472C56.6272 60.424 56.5872 60.368 56.5552 60.304L56.4112 60.064H56.3632C56.3472 60.032 56.3312 59.992 56.3152 59.944C56.2992 59.896 56.2752 59.856 56.2432 59.824H55.8352L55.7392 59.584H56.5552C56.5392 59.52 56.5152 59.456 56.4832 59.392C56.4672 59.344 56.4512 59.288 56.4352 59.224H56.2912C56.2912 59.176 56.2832 59.128 56.2672 59.08C56.2672 59.048 56.2672 59.016 56.2672 58.984C56.2672 58.872 56.2752 58.792 56.2912 58.744H56.2192C56.2672 58.648 56.3232 58.568 56.3872 58.504H56.2432C56.3392 58.44 56.4112 58.4 56.4592 58.384H56.7712C56.8672 58.352 56.9552 58.336 57.0352 58.336H61.7152C61.7952 58.336 61.8832 58.352 61.9792 58.384H61.6432C61.7232 58.4 61.7872 58.44 61.8352 58.504H61.9792C62.0432 58.568 62.0992 58.648 62.1472 58.744H62.2192L62.2672 58.816C62.3792 59.008 62.4832 59.144 62.5792 59.224H62.6992C62.8752 59.352 63.1152 59.416 63.4192 59.416C63.6592 59.416 63.8672 59.352 64.0432 59.224H64.4272C64.5712 59.112 64.6752 58.952 64.7392 58.744H63.3472C63.3792 58.648 63.3952 58.568 63.3952 58.504H64.5232C64.5392 58.472 64.5472 58.432 64.5472 58.384H64.5712C64.5872 58.32 64.5952 58.256 64.5952 58.192C64.5952 58.144 64.5952 58.088 64.5952 58.024H64.4512V57.904H65.0272V57.544H64.2592V57.424H63.8032V57.304H64.2352V56.824H63.7792V56.68L63.5392 56.824H63.5152C63.1312 57.048 62.7152 57.208 62.2672 57.304H62.3632C62.2352 57.32 62.1072 57.344 61.9792 57.376C61.8512 57.392 61.7152 57.408 61.5712 57.424H60.9712C60.8752 57.44 60.7792 57.448 60.6832 57.448C60.5872 57.448 60.4912 57.448 60.3952 57.448C60.2832 57.448 60.1712 57.448 60.0592 57.448C59.9472 57.448 59.8432 57.44 59.7472 57.424H60.3232C60.1792 57.408 60.0352 57.392 59.8912 57.376C59.7472 57.344 59.6032 57.32 59.4592 57.304H59.3872C59.1472 57.256 58.9152 57.192 58.6912 57.112C58.4832 57.032 58.2752 56.936 58.0672 56.824H58.0912C58.0272 56.792 57.9632 56.76 57.8992 56.728C57.8352 56.68 57.7712 56.632 57.7072 56.584H58.2592C58.1632 56.504 58.0672 56.424 57.9712 56.344C57.8912 56.264 57.8112 56.184 57.7312 56.104H55.7872L55.6672 55.984H56.7712C56.6432 55.824 56.5312 55.664 56.4352 55.504H56.7472C56.6352 55.344 56.5472 55.184 56.4832 55.024H56.4352C56.3552 54.848 56.2912 54.688 56.2432 54.544H54.4912C54.4912 54.512 54.4912 54.488 54.4912 54.472C54.4752 54.456 54.4672 54.44 54.4672 54.424H56.0992L56.0272 54.184H56.1472C56.1312 54.104 56.1072 54.024 56.0752 53.944C56.0592 53.864 56.0432 53.784 56.0272 53.704H56.3152L56.2432 53.224H55.9312L55.9072 52.984H55.3312C55.3152 52.904 55.3072 52.824 55.3072 52.744C55.3072 52.664 55.2992 52.584 55.2832 52.504H55.0672C55.0672 52.44 55.0672 52.384 55.0672 52.336C55.0512 52.272 55.0432 52.208 55.0432 52.144H55.3792V51.904H55.8112C55.8112 51.84 55.8032 51.784 55.7872 51.736C55.7872 51.672 55.7872 51.608 55.7872 51.544H56.0032V51.184H55.6192C55.6192 51.12 55.6192 51.064 55.6192 51.016C55.6192 50.952 55.6272 50.888 55.6432 50.824H55.6912V50.8C55.6912 50.736 55.6912 50.68 55.6912 50.632C55.7072 50.584 55.7152 50.528 55.7152 50.464H55.8112C55.8272 50.4 55.8352 50.344 55.8352 50.296C55.8352 50.232 55.8432 50.168 55.8592 50.104C55.8752 50.072 55.8832 50.032 55.8832 49.984C55.8832 49.936 55.8912 49.896 55.9072 49.864H55.7872V49.744H55.9312C55.9472 49.664 55.9632 49.584 55.9792 49.504C55.9952 49.408 56.0112 49.328 56.0272 49.264H56.0032C56.0192 49.2 56.0352 49.144 56.0512 49.096C56.0672 49.032 56.0832 48.968 56.0992 48.904H56.2912C56.3232 48.824 56.3472 48.744 56.3632 48.664C56.3952 48.568 56.4272 48.488 56.4592 48.424H56.5792L56.6272 48.304H56.2912C56.3072 48.272 56.3232 48.232 56.3392 48.184C56.3552 48.136 56.3712 48.096 56.3872 48.064L56.5312 47.704C56.5472 47.672 56.5552 47.648 56.5552 47.632C56.5712 47.616 56.5872 47.6 56.6032 47.584L56.6752 47.464C56.7072 47.432 56.7312 47.392 56.7472 47.344C56.7792 47.296 56.8112 47.256 56.8432 47.224C56.8592 47.192 56.8752 47.168 56.8912 47.152C56.9072 47.136 56.9232 47.12 56.9392 47.104H56.8912L57.1792 46.744C57.2272 46.712 57.2672 46.672 57.2992 46.624C57.3472 46.576 57.3872 46.536 57.4192 46.504H57.4672C57.4832 46.472 57.4992 46.448 57.5152 46.432C57.5472 46.416 57.5712 46.4 57.5872 46.384H57.8512C57.9472 46.288 58.0512 46.208 58.1632 46.144H57.5632C57.6272 46.096 57.6912 46.056 57.7552 46.024C57.8192 45.976 57.8832 45.936 57.9472 45.904H58.1152C58.3392 45.776 58.6112 45.656 58.9312 45.544H59.7232C60.2992 45.368 60.9152 45.28 61.5712 45.28C62.1472 45.28 62.6832 45.368 63.1792 45.544H62.3872C62.6432 45.624 62.8992 45.744 63.1552 45.904H63.0112C63.0752 45.936 63.1312 45.976 63.1792 46.024C63.2432 46.056 63.3072 46.096 63.3712 46.144H63.9472C64.0112 46.176 64.0672 46.216 64.1152 46.264C64.1632 46.312 64.2112 46.352 64.2592 46.384H63.9952L64.1152 46.504H64.0912L64.3072 46.744C64.3392 46.76 64.3632 46.784 64.3792 46.816C64.4112 46.848 64.4352 46.88 64.4512 46.912V46.744H64.5472V46.504H64.9552V46.384H65.2192V46.144H64.0432C64.0432 46.048 64.0672 45.968 64.1152 45.904H64.5232C64.6032 45.712 64.7392 45.592 64.9312 45.544H64.4512C64.4992 45.528 64.5632 45.52 64.6432 45.52H68.8432C68.9232 45.52 68.9792 45.528 69.0112 45.544H69.4912C69.6832 45.592 69.8192 45.712 69.8992 45.904H69.4912C69.5232 46 69.5392 46.08 69.5392 46.144H70.7152V46.384H70.4512V46.504H70.0432V46.744H69.9472V47.104H69.9712V47.464H69.9472V48.064H69.9712V48.304H70.3072V48.424H70.1632V48.904H69.9472L69.9712 49.264V49.864H69.8992V50.104H69.8272V50.464H69.9712V50.824H70.2592V51.184H69.7552V51.544H69.9232V51.904H69.9712V52.144H69.1792L69.2032 52.504H69.2992V52.984H69.8272V53.224H70.2592V53.704H69.9472V54.184H69.8512V54.424H68.1952V54.544H69.9472V55.024H69.9952V55.504H69.6592L69.6832 55.984H68.5792V56.104H70.5232V56.584H69.6592V56.824H70.1152V57.304H69.6832V57.424H70.1392V57.544ZM62.0512 52.984C62.1632 53.096 62.3072 53.176 62.4832 53.224H62.7712C62.8352 53.24 62.8992 53.256 62.9632 53.272C63.0432 53.272 63.1152 53.272 63.1792 53.272C63.2592 53.272 63.3312 53.272 63.3952 53.272C63.4752 53.256 63.5472 53.24 63.6112 53.224H63.1792C63.3552 53.176 63.4992 53.096 63.6112 52.984H63.0832C63.2112 52.856 63.2992 52.696 63.3472 52.504H63.2512L63.3232 52.144H64.0912C64.0912 52.112 64.0992 52.088 64.1152 52.072V51.904H64.0672V51.544H63.9232V51.184H64.4032V50.824H64.0912V50.776C64.0912 50.712 64.0832 50.656 64.0672 50.608C64.0672 50.56 64.0592 50.512 64.0432 50.464H63.9232C63.9072 50.336 63.8672 50.216 63.8032 50.104H63.8512C63.8032 50.008 63.7472 49.928 63.6832 49.864H63.7552C63.6912 49.8 63.6432 49.76 63.6112 49.744C63.4512 49.632 63.2192 49.576 62.9152 49.576C62.6112 49.576 62.3792 49.632 62.2192 49.744H62.0752C62.0432 49.76 61.9952 49.8 61.9312 49.864H62.0512C61.9872 49.928 61.9312 50.008 61.8832 50.104H61.8592C61.8432 50.152 61.8272 50.208 61.8112 50.272C61.7952 50.32 61.7712 50.384 61.7392 50.464H61.6432C61.6272 50.528 61.6112 50.592 61.5952 50.656C61.5952 50.704 61.5952 50.76 61.5952 50.824H61.5232V50.968C61.5072 51.016 61.4992 51.088 61.4992 51.184H61.8832V51.544H61.6672C61.6672 51.608 61.6672 51.672 61.6672 51.736C61.6832 51.784 61.6912 51.832 61.6912 51.88V51.904H61.2592L61.2832 52.144H60.9472L61.0192 52.504H61.2352C61.2832 52.696 61.3712 52.856 61.4992 52.984H62.0512ZM64.4272 56.584H64.6432V56.416L64.4272 56.584ZM83.7476 51.424V51.664H86.7956V51.904H84.9476V52.144H84.0836V52.384H84.8276V52.528C84.8276 52.624 84.8196 52.696 84.8036 52.744H85.1396C85.0276 53.032 84.8196 53.176 84.5156 53.176H77.3636V53.224H78.3236V53.296C78.3236 53.36 78.3236 53.432 78.3236 53.512C78.3236 53.576 78.3316 53.64 78.3476 53.704H77.0516C77.0516 53.752 77.0516 53.8 77.0516 53.848C77.0676 53.88 77.0756 53.912 77.0756 53.944H76.9316C76.9316 54.008 76.9476 54.088 76.9796 54.184H77.0756C77.1556 54.408 77.2836 54.568 77.4596 54.664H76.8116C76.9236 54.728 77.0756 54.76 77.2676 54.76C77.3956 54.76 77.4996 54.728 77.5796 54.664H78.7076C78.7716 54.632 78.8276 54.584 78.8756 54.52C78.9396 54.456 79.0116 54.392 79.0916 54.328L79.2356 54.184H78.7796C78.9236 54.056 79.1396 53.992 79.4276 53.992H83.9636C84.1556 53.992 84.2996 54.056 84.3956 54.184H84.8276C84.9076 54.296 84.9476 54.408 84.9476 54.52C84.9316 54.552 84.9236 54.6 84.9236 54.664H83.7956C83.7636 54.824 83.7156 54.984 83.6516 55.144H82.4756C82.4276 55.224 82.3876 55.304 82.3556 55.384H85.3316C85.2996 55.464 85.2516 55.544 85.1876 55.624C85.1396 55.704 85.0836 55.784 85.0196 55.864H84.2996C84.2356 55.96 84.1716 56.04 84.1076 56.104H84.2756C84.2596 56.12 84.2436 56.136 84.2276 56.152C84.2116 56.168 84.1956 56.192 84.1796 56.224H82.8356L82.7156 56.344H83.1236C83.1076 56.36 83.0836 56.376 83.0516 56.392C83.0356 56.408 83.0196 56.432 83.0036 56.464H83.7476C83.6356 56.576 83.4916 56.696 83.3156 56.824H82.9556C82.9396 56.84 82.9156 56.856 82.8836 56.872C82.8516 56.888 82.8196 56.912 82.7876 56.944H82.5236C82.2676 57.12 81.9876 57.28 81.6836 57.424H81.3716C81.1796 57.52 80.9716 57.608 80.7476 57.688C80.5396 57.768 80.3156 57.84 80.0756 57.904H79.6916C79.5156 57.952 79.3316 57.992 79.1396 58.024C78.9476 58.072 78.7396 58.112 78.5156 58.144H79.5236C79.2996 58.176 79.0676 58.2 78.8276 58.216C78.5876 58.232 78.3316 58.24 78.0596 58.24C77.8036 58.24 77.5476 58.232 77.2916 58.216C77.0356 58.2 76.7876 58.176 76.5476 58.144H75.5396C75.3316 58.112 75.1316 58.072 74.9396 58.024C74.7476 57.992 74.5556 57.952 74.3636 57.904H74.7476C74.3156 57.792 73.9076 57.632 73.5236 57.424H73.8356C73.5476 57.264 73.2996 57.104 73.0916 56.944H73.3556C73.3236 56.912 73.2916 56.888 73.2596 56.872C73.2436 56.856 73.2196 56.84 73.1876 56.824H73.5476C73.4836 56.76 73.4196 56.704 73.3556 56.656C73.2916 56.592 73.2276 56.528 73.1636 56.464H72.3956L72.2756 56.344H71.8676C71.8516 56.312 71.8356 56.288 71.8196 56.272C71.8036 56.256 71.7876 56.24 71.7716 56.224H73.0916C73.0756 56.192 73.0436 56.152 72.9956 56.104H72.8276C72.7956 56.072 72.7636 56.032 72.7316 55.984C72.6996 55.936 72.6676 55.896 72.6356 55.864H73.3556C73.3076 55.784 73.2596 55.704 73.2116 55.624C73.1636 55.544 73.1156 55.464 73.0676 55.384H70.0676C70.0196 55.304 69.9796 55.224 69.9476 55.144H71.1236L70.9076 54.664H71.5556C71.5236 54.584 71.4916 54.504 71.4596 54.424C71.4436 54.344 71.4196 54.264 71.3876 54.184H71.3156L71.2436 53.944H71.4116L71.3396 53.704H72.6356C72.6196 53.624 72.6036 53.544 72.5876 53.464C72.5716 53.384 72.5556 53.304 72.5396 53.224H71.5796L71.5316 52.744H71.1956C71.1956 52.68 71.1876 52.624 71.1716 52.576C71.1716 52.512 71.1716 52.448 71.1716 52.384H70.4276V52.144H71.2676V51.904H73.1156V51.664H70.0676V51.616C70.0676 51.536 70.0756 51.472 70.0916 51.424H74.2436C74.2436 51.36 74.2436 51.304 74.2436 51.256C74.2596 51.192 74.2676 51.128 74.2676 51.064H70.4516C70.4516 51.032 70.4516 51.008 70.4516 50.992C70.4676 50.976 70.4756 50.96 70.4756 50.944H72.0596C72.0596 50.896 72.0676 50.856 72.0836 50.824H73.8596V50.704H70.4756C70.4916 50.624 70.5076 50.544 70.5236 50.464C70.5396 50.384 70.5556 50.304 70.5716 50.224H71.4836C71.4836 50.16 71.4996 50.08 71.5316 49.984H70.7396C70.7396 49.952 70.7396 49.928 70.7396 49.912C70.7556 49.896 70.7636 49.88 70.7636 49.864H71.3396C71.3396 49.832 71.3396 49.808 71.3396 49.792C71.3556 49.776 71.3636 49.76 71.3636 49.744H70.7636L70.8116 49.624H71.3876L71.4596 49.384H71.9156L72.0596 49.024H71.6276C71.6596 48.944 71.6916 48.864 71.7236 48.784C71.7556 48.688 71.7956 48.608 71.8436 48.544H71.7716L71.8196 48.424H71.2196C71.2516 48.36 71.2676 48.32 71.2676 48.304H70.7156L70.8596 48.064H72.0356C72.0516 48.032 72.0836 47.992 72.1316 47.944H72.5636C72.6276 47.864 72.6836 47.784 72.7316 47.704C72.7956 47.608 72.8596 47.528 72.9236 47.464H72.4916C72.5396 47.4 72.5876 47.344 72.6356 47.296C72.6996 47.232 72.7636 47.168 72.8276 47.104H73.7636L74.0036 46.864H72.5876C72.7956 46.688 73.0036 46.528 73.2116 46.384H74.5316L74.7236 46.264H74.2916C74.4196 46.184 74.5716 46.104 74.7476 46.024H75.6836C76.1156 45.816 76.5636 45.656 77.0276 45.544H75.6836C76.0356 45.464 76.4036 45.4 76.7876 45.352C77.1716 45.304 77.5716 45.28 77.9876 45.28C78.4036 45.28 78.7956 45.304 79.1636 45.352C79.5316 45.4 79.8836 45.464 80.2196 45.544H81.5396C81.7796 45.608 82.0036 45.68 82.2116 45.76C82.4356 45.84 82.6516 45.928 82.8596 46.024H81.9236C82.0036 46.056 82.0756 46.096 82.1396 46.144C82.2196 46.176 82.2916 46.216 82.3556 46.264H82.7876C82.8196 46.28 82.8516 46.296 82.8836 46.312C82.9156 46.328 82.9476 46.352 82.9796 46.384H81.6596C81.8676 46.528 82.0756 46.688 82.2836 46.864H83.7236L83.9636 47.104H83.0276C83.0916 47.168 83.1476 47.232 83.1956 47.296C83.2596 47.344 83.3156 47.4 83.3636 47.464H83.7956C83.8596 47.528 83.9156 47.608 83.9636 47.704C84.0276 47.784 84.0916 47.864 84.1556 47.944H83.6996C83.7156 47.976 83.7476 48.016 83.7956 48.064H82.5956L82.7396 48.304H83.2916L83.3636 48.424H83.9876C83.9876 48.44 84.0036 48.48 84.0356 48.544H84.1076L84.3236 49.024L84.4676 49.384H84.4916L84.5636 49.624H84.2756L84.3236 49.744H84.5396L84.5876 49.864H84.9716C84.9716 49.88 84.9716 49.896 84.9716 49.912C84.9876 49.928 84.9956 49.952 84.9956 49.984H84.8036L84.8756 50.224H83.9636L84.0356 50.704H87.4196V50.824H85.6436C85.6436 50.84 85.6436 50.856 85.6436 50.872C85.6596 50.888 85.6676 50.912 85.6676 50.944H84.0596C84.0756 50.976 84.0836 51.016 84.0836 51.064H87.8996C87.8996 51.128 87.8996 51.192 87.8996 51.256C87.8996 51.304 87.9076 51.36 87.9236 51.424H83.7476ZM76.4516 49.864V49.984H77.2196V50.176H79.1396V49.984H79.3076V49.864H78.9236V49.744H78.6836C78.6836 49.696 78.6756 49.656 78.6596 49.624H78.9476C78.9476 49.56 78.9316 49.48 78.8996 49.384H78.8756C78.8596 49.24 78.8116 49.12 78.7316 49.024C78.5716 48.768 78.3236 48.64 77.9876 48.64C77.6676 48.64 77.4276 48.768 77.2676 49.024H77.6996C77.6356 49.12 77.5876 49.24 77.5556 49.384H77.0756C77.0756 49.416 77.0676 49.456 77.0516 49.504C77.0516 49.536 77.0436 49.576 77.0276 49.624H76.4516C76.4516 49.672 76.4436 49.712 76.4276 49.744H77.0276V49.864H76.4516ZM96.6607 47.344H97.5727V47.824H97.5247V48.304H96.6847V48.664H96.9007V49.144H96.7087V49.624H96.2767V49.744H94.7647V49.912C94.7647 49.944 94.7567 49.976 94.7407 50.008C94.7407 50.04 94.7327 50.072 94.7167 50.104H95.2687C95.1887 50.408 94.9807 50.56 94.6447 50.56H91.5487C91.4847 50.56 91.4207 50.56 91.3567 50.56C91.3087 50.56 91.2607 50.568 91.2127 50.584H92.1727C92.0927 50.6 92.0207 50.616 91.9567 50.632C91.8927 50.648 91.8207 50.672 91.7407 50.704H92.5327C92.4847 50.72 92.4127 50.76 92.3167 50.824H92.7727L92.6287 50.944H92.7487C92.6527 51.04 92.5807 51.16 92.5327 51.304H91.8127C91.7807 51.368 91.7647 51.408 91.7647 51.424H91.5247C91.5247 51.44 91.5167 51.456 91.5007 51.472C91.5007 51.488 91.5007 51.512 91.5007 51.544H91.7887C91.7727 51.576 91.7647 51.616 91.7647 51.664C91.7647 51.696 91.7567 51.736 91.7407 51.784H91.8847V52.144H91.5487V52.384H91.8847V52.744H92.2447V53.224H91.7167V53.344H91.3327V53.464H92.7727V53.824H92.0527V54.064H92.2927V54.304H91.7407V54.784H91.4287V54.904H91.1167V55.264H91.9327V55.624H91.5007V55.984H91.9327V56.104H91.8847V56.344H91.3567V56.584H91.7407V57.064H91.8367V57.424H91.7407C91.7087 57.648 91.6047 57.808 91.4287 57.904H91.2127C91.1327 57.968 91.0207 58 90.8767 58H86.3167C86.1727 58 86.0607 57.968 85.9807 57.904H86.1967C86.0207 57.808 85.9167 57.648 85.8847 57.424H85.9807V57.064H85.8847V56.584H85.5007V56.344H86.0287V56.104H86.0767V55.984H85.6447V55.624H86.0767V55.264H85.2607V54.904H85.5727V54.784H85.8847V54.304H86.4367V54.064H86.1967V53.824H86.9167V53.464H85.4767V53.344H85.8607V53.224H86.3887V52.744H86.0287V52.384H85.6927V52.144H86.0287V51.784H85.8847V51.544H85.5967V51.424H85.8367V51.304H86.5567V50.944H86.4367V50.824H86.0047V50.704H85.2127V50.584H84.2527V50.104H83.7247V49.744H85.2367V49.624H85.6687V49.144H85.8607V48.664H85.6447V48.304H86.4847V47.824H86.5327V47.344H85.6207V46.984H86.3887V46.504H85.6447V46.384H85.8847V46.168C85.8847 46.088 85.9007 46 85.9327 45.904H85.9087C86.0207 45.648 86.2207 45.52 86.5087 45.52H90.7087C90.9807 45.52 91.1727 45.648 91.2847 45.904H91.3327C91.3647 46 91.3807 46.088 91.3807 46.168V46.384H91.1407V46.504H91.8847V46.576L91.9807 46.504H92.0287C92.0607 46.472 92.0927 46.448 92.1247 46.432C92.1567 46.416 92.1807 46.4 92.1967 46.384H92.2447C92.5647 46.176 92.8767 46.016 93.1807 45.904H93.2287C93.5487 45.776 93.8687 45.68 94.1887 45.616C94.5087 45.552 94.8447 45.52 95.1967 45.52H96.3487C96.6367 45.52 96.8367 45.648 96.9487 45.904H96.9007C96.9327 46 96.9487 46.088 96.9487 46.168V46.384H96.9247V46.504H96.8767V46.984H96.6607V47.344Z" fill="#5E0000"/>
<defs>
<linearGradient id="paint0_linear_186_328" x1="-1.1223e-06" y1="5.67966" x2="100" y2="94.3203" gradientUnits="userSpaceOnUse">
<stop offset="0.33" stop-color="#FF5555"/>
<stop offset="1" stop-color="#B30F0F"/>
</linearGradient>
</defs>
</svg>
