<svg width="348" height="184" viewBox="0 0 348 184" fill="none" xmlns="http://www.w3.org/2000/svg">
<rect x="2" y="143.011" width="336" height="17" fill="#D9E8E4"/>
<line x1="3" y1="137" x2="3" y2="167" stroke="#19929B" stroke-width="2"/>
<line x1="49" y1="160.022" x2="49" y2="137" stroke="#6ECBB2" stroke-width="2"/>
<line x1="99" y1="137" x2="99" y2="160" stroke="#6ECBB2" stroke-width="2"/>
<line x1="147" y1="137" x2="147" y2="160" stroke="#6ECBB2" stroke-width="2"/>
<line x1="195" y1="137" x2="195" y2="160" stroke="#6ECBB2" stroke-width="2"/>
<line x1="243" y1="137" x2="243" y2="160" stroke="#6ECBB2" stroke-width="2"/>
<line x1="291" y1="137" x2="291" y2="160" stroke="#6ECBB2" stroke-width="2"/>
<line x1="339" y1="137" x2="339" y2="167" stroke="#19929B" stroke-width="2"/>
<path d="M5.93859 177.502L0.850043 172.131C0.751516 172.042 0.624778 171.995 0.495156 172C0.365534 172.006 0.242575 172.062 0.150851 172.159C0.0591257 172.256 0.00539084 172.386 0.000384104 172.523C-0.00462263 172.66 0.0394675 172.794 0.123844 172.898L4.79006 177.829L0.257753 182.618C0.161827 182.72 0.107984 182.858 0.107984 183.001C0.107984 183.145 0.161827 183.283 0.257753 183.385C0.305632 183.436 0.362595 183.477 0.425357 183.504C0.488119 183.532 0.555437 183.546 0.623427 183.546C0.691418 183.546 0.758736 183.532 0.821498 183.504C0.884259 183.477 0.941223 183.436 0.989102 183.385L5.93859 178.155C6.02036 178.069 6.06627 177.951 6.06627 177.829C6.06627 177.706 6.02036 177.589 5.93859 177.502Z" fill="#19929B"/>
<path d="M10.8722 177.502L5.78364 172.131C5.68511 172.042 5.55837 171.995 5.42875 172C5.29913 172.006 5.17617 172.062 5.08444 172.159C4.99272 172.256 4.93898 172.386 4.93398 172.523C4.92897 172.66 4.97306 172.794 5.05744 172.898L9.72365 177.829L5.19135 182.618C5.09542 182.72 5.04158 182.858 5.04158 183.001C5.04158 183.145 5.09542 183.283 5.19135 183.385C5.28785 183.487 5.41838 183.543 5.55445 183.543C5.69051 183.543 5.82105 183.487 5.91755 183.385L10.8722 178.155C10.954 178.069 10.9999 177.951 10.9999 177.829C10.9999 177.706 10.954 177.589 10.8722 177.502Z" fill="#19929B"/>
<path d="M41.9639 174.769V182.546H40.3418V176.305H40.2988L38.5156 177.422V175.993L40.4385 174.769H41.9639ZM43.4936 182.546L43.4828 181.375L46.2758 178.808C47.0062 178.11 47.393 177.68 47.393 177.068C47.393 176.38 46.8666 175.95 46.1576 175.95C45.4271 175.95 44.9545 176.412 44.9545 177.154H43.4184C43.4076 175.628 44.5355 174.661 46.1791 174.661C47.8441 174.661 48.9506 175.607 48.9506 176.96C48.9506 177.841 48.5209 178.572 46.9203 180.022L45.7387 181.171V181.214H49.058V182.546H43.4936ZM51.0926 182.546L49.5027 176.713H51.1141L52.0271 180.656H52.0809L53.0369 176.713H54.616L55.5828 180.634H55.6365L56.5389 176.713H58.1502L56.5496 182.546H54.8738L53.8641 178.84H53.7889L52.7791 182.546H51.0926Z" fill="#59BBA1"/>
<path d="M89.9639 174.769V182.546H88.3418V176.305H88.2988L86.5156 177.422V175.993L88.4385 174.769H89.9639ZM91.3646 181.171V179.893L94.6518 174.769H96.682V179.871H97.6703V181.171H96.682V182.546H95.1459V181.171H91.3646ZM92.9975 179.871H95.1674V176.541H95.0922L92.9975 179.807V179.871ZM99.6082 182.546L98.0184 176.713H99.6297L100.543 180.656H100.596L101.553 176.713H103.132L104.098 180.634H104.152L105.054 176.713H106.666L105.065 182.546H103.389L102.38 178.84H102.304L101.295 182.546H99.6082Z" fill="#59BBA1"/>
<path d="M137.964 174.769V182.546H136.342V176.305H136.299L134.516 177.422V175.993L136.438 174.769H137.964ZM142.501 182.654C140.89 182.643 139.365 181.687 139.365 178.84C139.365 176.219 140.621 174.661 142.566 174.661C144.134 174.661 145.198 175.65 145.359 176.928H143.769C143.64 176.38 143.189 176.047 142.566 176.047C141.513 176.047 140.954 177.003 140.944 178.529H141.019C141.373 177.841 142.147 177.433 143.006 177.433C144.403 177.433 145.445 178.486 145.445 179.947C145.445 181.526 144.252 182.664 142.501 182.654ZM142.491 181.375C143.286 181.375 143.876 180.774 143.876 179.99C143.876 179.216 143.307 178.604 142.512 178.604C141.717 178.604 141.116 179.227 141.105 179.99C141.116 180.752 141.696 181.375 142.491 181.375ZM147.447 182.546L145.857 176.713H147.469L148.382 180.656H148.435L149.391 176.713H150.971L151.937 180.634H151.991L152.893 176.713H154.505L152.904 182.546H151.228L150.219 178.84H150.143L149.134 182.546H147.447Z" fill="#59BBA1"/>
<path d="M182.612 182.546L182.602 181.375L185.395 178.808C186.125 178.11 186.512 177.68 186.512 177.068C186.512 176.38 185.985 175.95 185.276 175.95C184.546 175.95 184.073 176.412 184.073 177.154H182.537C182.526 175.628 183.654 174.661 185.298 174.661C186.963 174.661 188.069 175.607 188.069 176.96C188.069 177.841 187.64 178.572 186.039 180.022L184.857 181.171V181.214H188.177V182.546H182.612ZM192.07 182.654C190.125 182.654 188.944 181.203 188.944 178.657C188.944 176.112 190.125 174.661 192.07 174.661C194.014 174.661 195.196 176.122 195.196 178.657C195.196 181.214 194.014 182.654 192.07 182.654ZM192.07 181.322C192.972 181.322 193.552 180.451 193.541 178.657C193.541 176.885 192.972 175.983 192.07 175.983C191.167 175.983 190.598 176.885 190.598 178.657C190.587 180.451 191.167 181.322 192.07 181.322ZM197.198 182.546L195.608 176.713H197.22L198.133 180.656H198.186L199.142 176.713H200.721L201.688 180.634H201.742L202.644 176.713H204.256L202.655 182.546H200.979L199.97 178.84H199.894L198.885 182.546H197.198Z" fill="#59BBA1"/>
<path d="M235.491 182.654C233.783 182.654 232.559 181.708 232.526 180.355H234.159C234.191 180.935 234.75 181.322 235.502 181.322C236.275 181.322 236.834 180.881 236.823 180.258C236.834 179.624 236.265 179.173 235.352 179.173H234.632V177.981H235.352C236.114 177.981 236.651 177.562 236.651 176.949C236.651 176.359 236.2 175.95 235.513 175.95C234.825 175.95 234.256 176.337 234.234 176.928H232.688C232.709 175.585 233.923 174.661 235.513 174.661C237.135 174.661 238.22 175.617 238.209 176.853C238.22 177.723 237.607 178.346 236.737 178.496V178.561C237.876 178.7 238.51 179.399 238.499 180.365C238.51 181.698 237.242 182.654 235.491 182.654ZM242.371 182.654C240.759 182.643 239.234 181.687 239.234 178.84C239.234 176.219 240.491 174.661 242.435 174.661C244.003 174.661 245.067 175.65 245.228 176.928H243.638C243.509 176.38 243.058 176.047 242.435 176.047C241.382 176.047 240.824 177.003 240.813 178.529H240.888C241.243 177.841 242.016 177.433 242.875 177.433C244.272 177.433 245.314 178.486 245.314 179.947C245.314 181.526 244.121 182.664 242.371 182.654ZM242.36 181.375C243.155 181.375 243.746 180.774 243.746 179.99C243.746 179.216 243.176 178.604 242.381 178.604C241.586 178.604 240.985 179.227 240.974 179.99C240.985 180.752 241.565 181.375 242.36 181.375ZM247.316 182.546L245.726 176.713H247.338L248.251 180.656H248.304L249.261 176.713H250.84L251.806 180.634H251.86L252.762 176.713H254.374L252.773 182.546H251.097L250.088 178.84H250.012L249.003 182.546H247.316Z" fill="#59BBA1"/>
<path d="M282.483 181.171V179.893L285.771 174.769H287.801V179.871H288.789V181.171H287.801V182.546H286.265V181.171H282.483ZM284.116 179.871H286.286V176.541H286.211L284.116 179.807V179.871ZM292.585 182.654C290.641 182.654 289.459 181.203 289.459 178.657C289.459 176.112 290.641 174.661 292.585 174.661C294.53 174.661 295.711 176.122 295.711 178.657C295.711 181.214 294.53 182.654 292.585 182.654ZM292.585 181.322C293.488 181.322 294.068 180.451 294.057 178.657C294.057 176.885 293.488 175.983 292.585 175.983C291.683 175.983 291.114 176.885 291.114 178.657C291.103 180.451 291.683 181.322 292.585 181.322ZM297.714 182.546L296.124 176.713H297.735L298.648 180.656H298.702L299.658 176.713H301.237L302.204 180.634H302.258L303.16 176.713H304.771L303.171 182.546H301.495L300.485 178.84H300.41L299.4 182.546H297.714Z" fill="#59BBA1"/>
<path d="M321.629 180.831C321.629 179.256 322.962 178.85 324.207 178.761C324.664 178.73 325.698 178.672 326.022 178.66L326.009 178.114C326.009 177.339 325.54 176.882 324.613 176.882C323.813 176.882 323.331 177.251 323.191 177.758H321.845C321.972 176.616 323.039 175.791 324.664 175.791C325.755 175.791 327.368 176.197 327.368 178.19V182.773H326.047V181.834H325.997C325.73 182.354 325.095 182.925 323.953 182.925C322.645 182.925 321.629 182.176 321.629 180.831ZM322.95 180.843C322.95 181.504 323.496 181.846 324.257 181.846C325.362 181.846 326.022 181.11 326.022 180.285V179.65L324.397 179.764C323.508 179.828 322.95 180.158 322.95 180.843ZM331.969 175.88V176.959H330.483V182.773H329.125V176.959H328.058V175.88H329.125V175.08C329.125 173.848 329.912 173.15 331.181 173.15C331.512 173.15 331.842 173.188 332.108 173.239V174.369C331.854 174.331 331.664 174.318 331.537 174.318C330.813 174.318 330.483 174.61 330.483 175.283V175.88H331.969ZM336.1 175.88V176.959H334.69V180.742C334.69 181.516 335.084 181.656 335.516 181.669C335.706 181.669 336.011 181.643 336.201 181.63V182.811C336.011 182.837 335.719 182.862 335.351 182.862C334.284 182.862 333.332 182.278 333.345 181.021V176.959H332.329V175.88H333.345V174.229H334.69V175.88H336.1ZM339.989 182.913C337.958 182.913 336.714 181.516 336.714 179.371C336.714 177.251 337.984 175.791 339.901 175.791C341.475 175.791 342.96 176.768 342.96 179.256V179.739H338.06C338.098 181.047 338.866 181.796 340.002 181.796C340.777 181.796 341.272 181.465 341.5 181.047H342.871C342.567 182.164 341.5 182.913 339.989 182.913ZM338.072 178.723H341.627C341.627 177.67 340.954 176.908 339.913 176.908C338.828 176.908 338.123 177.746 338.072 178.723ZM343.981 182.773V175.88H345.288V176.971H345.365C345.619 176.235 346.304 175.778 347.117 175.778C347.282 175.778 347.548 175.791 347.688 175.803V177.098C347.574 177.073 347.256 177.022 346.977 177.022C346.038 177.022 345.339 177.67 345.339 178.571V182.773H343.981Z" fill="#19929B"/>
<path d="M3 130H49" stroke="#99C717" stroke-width="2"/>
<circle cx="49" cy="130" r="3" fill="#99C717"/>
<circle cx="3" cy="130" r="3" fill="#99C717"/>
<path d="M46 130H109.008" stroke="#99C717" stroke-width="2" stroke-dasharray="4 4"/>
<circle cx="110" cy="130" r="3" fill="#B6DD45"/>
<path d="M116 74H336" stroke="#FF9B9B" stroke-width="2"/>
<circle cx="114" cy="74" r="3" fill="#FF9B9B"/>
<circle cx="338" cy="74" r="3" fill="#FF9B9B"/>
<path d="M197 39L338 40" stroke="#8CA5FF" stroke-width="2"/>
<circle cx="195" cy="39" r="3" fill="#8CA5FF"/>
<circle cx="338" cy="40" r="3" fill="#8CA5FF"/>
<path d="M6 3H338" stroke="#DD8CDE" stroke-width="2"/>
<circle cx="4" cy="3" r="3" fill="#DD8CDE"/>
<circle cx="338" cy="3" r="3" fill="#DD8CDE"/>
<path d="M101 111H193" stroke="#F6DD5A" stroke-width="2"/>
<circle cx="101" cy="111" r="3" fill="#F6DD5A"/>
<circle cx="195" cy="111" r="3" fill="#F6DD5A"/>
</svg>
