<svg width="24" height="24" viewBox="0 0 24 24" fill="none" xmlns="http://www.w3.org/2000/svg">
<path d="M20 20.0893C20 20.5922 19.5922 21 19.0893 21H5.125C3.95139 21 3 20.0486 3 18.875V4.91071C3 4.40775 3.40775 4 3.91071 4C4.41368 4 4.82143 4.40775 4.82143 4.91071V18.875C4.82143 19.0427 4.95734 19.1786 5.125 19.1786H19.0893C19.5922 19.1786 20 19.5863 20 20.0893ZM13.9286 7.33929C13.9286 6.83632 14.3363 6.42857 14.8393 6.42857H19.0893C19.5922 6.42857 20 6.83632 20 7.33929V11.5893C20 12.0923 19.5922 12.5 19.0893 12.5C18.5863 12.5 18.1786 12.0923 18.1786 11.5893V9.53791L13.3582 14.3582C13.1875 14.5291 12.9558 14.625 12.7143 14.625C12.4728 14.625 12.2411 14.5291 12.0702 14.3582L10.2857 12.5737L7.5904 15.2689C7.23475 15.6246 6.65811 15.6246 6.30246 15.2689C5.9468 14.9133 5.9468 14.3367 6.30246 13.9811L9.64174 10.6417C9.81253 10.471 10.0442 10.375 10.2857 10.375C10.5273 10.375 10.7589 10.471 10.9297 10.6417L12.7143 12.4263L16.8906 8.25H14.8393C14.3363 8.25 13.9286 7.84226 13.9286 7.33929Z" fill="#828282"/>
</svg>
