<svg width="195" height="118" viewBox="0 0 195 118" fill="none" xmlns="http://www.w3.org/2000/svg">
<path d="M53.0809 28.78V41.24C53.0809 53.77 42.7209 61.54 26.8309 61.54C11.6409 61.54 0.580859 53.07 0.580859 39.84V22.27C0.580859 9.04 11.6409 0.569999 26.8309 0.569999C42.0209 0.569999 52.0309 8.2 52.0309 20.17V22.97H38.0309V20.87C38.0309 15.06 34.1109 11.77 26.8309 11.77C19.5509 11.77 14.5809 15.76 14.5809 22.97V39.14C14.5809 46.35 19.5509 50.34 26.8309 50.34C34.6709 50.34 39.6409 47.05 39.6409 40.54V39.28H25.9909V28.78H53.0809ZM58.7109 47.05V1.41H72.4309V47.33C72.4309 49.78 73.7609 50.34 75.7209 50.34H78.5209V61.54H74.8809C63.5409 61.54 58.7109 55.73 58.7109 47.05ZM103.441 15.48C117.651 15.48 126.261 24.37 126.261 34.59V42.5C126.261 53.42 117.651 61.61 103.441 61.61C89.2315 61.61 80.6215 53.42 80.6215 42.5V34.59C80.6215 24.37 89.2315 15.48 103.441 15.48ZM103.441 18.63C103.161 31.65 97.9815 38.23 85.9415 38.51C97.9815 38.86 103.161 45.93 103.441 58.39C103.651 45.86 108.831 38.79 120.941 38.44C108.831 38.16 103.651 31.65 103.441 18.63ZM194.18 16.46L184.45 60.63H166.67L161.98 39.21C161.7 37.95 161.35 36.41 161.07 34.8C160.79 36.41 160.51 37.95 160.23 39.21L155.54 60.63H137.76L128.03 16.46H141.82L145.81 37.18C146.58 41.45 147.35 45.58 148.05 49.85L154.77 16.46H167.44L174.16 49.85C174.86 45.58 175.63 41.45 176.4 37.18L180.39 16.46H194.18ZM38.0363 88.84L47.9763 57.41H64.8463V116.63H51.7563V92.2C51.7563 88.56 52.3163 82.19 52.7363 77.85L41.2563 115.23H30.8263L19.3463 77.85C19.7663 82.19 20.3263 88.56 20.3263 92.2V116.63H7.23633V57.41H24.1063L34.0463 88.84C34.8863 92.06 35.5163 95.21 36.0063 98.36C36.5663 95.21 37.1263 92.06 38.0363 88.84ZM84.1559 99.41V99.69C84.1559 104.73 88.2859 107.32 92.9059 107.32C97.9459 107.32 100.956 106.13 100.956 103.89V102.56H114.676V104.59C114.676 112.01 105.436 117.61 92.9059 117.61C80.0959 117.61 70.4359 109.91 70.4359 98.99V90.59C70.4359 78.97 80.0959 71.48 92.9059 71.48C105.716 71.48 115.376 78.97 115.376 90.59V99.41H84.1559ZM93.6059 74.77C93.1859 82.54 85.3459 85.41 78.6959 85.55C85.5559 85.76 93.6059 89.19 93.6059 96.96C93.6059 89.19 101.096 85.69 107.886 85.48C101.306 85.34 93.9559 82.54 93.6059 74.77ZM136.465 117.54C126.945 117.54 119.245 113.06 119.245 104.66C119.245 95.84 124.285 90.45 138.565 88.84L149.065 87.65V86.67C149.065 83.17 145.985 81.84 141.365 81.84C136.885 81.84 134.365 83.59 134.365 85.97V86.67H120.645V85.27C120.645 77.71 128.695 71.76 141.365 71.76C153.475 71.76 162.785 77.99 162.785 86.67V116.63H149.765V114.11C147.175 116 141.855 117.54 136.465 117.54ZM140.665 90.73C140.315 97.31 134.295 102.7 127.715 102.98C134.435 103.26 140.665 109 140.665 115.37C140.665 109 146.825 103.19 153.545 102.91C147.035 102.63 140.945 97.31 140.665 90.73ZM169.453 103.05V57.41H183.173V103.33C183.173 105.78 184.503 106.34 186.463 106.34H189.263V117.54H185.623C174.283 117.54 169.453 111.73 169.453 103.05Z" fill="#90EAD2"/>
</svg>
